<?xml version="1.0" standalone="no"?>
<!DOCTYPE svg PUBLIC "-//W3C//DTD SVG 1.1//EN" "http://www.w3.org/Graphics/SVG/1.1/DTD/svg11.dtd" >
<svg xmlns="http://www.w3.org/2000/svg">
<metadata>
This is a custom SVG webfont generated by Font Squirrel.
Copyright   : Copyright c 2010 2011 Natalia Raices nraicesgmailcom with Reserved Font Name Delius Delius Unicase Delius Swash Caps
Designer    : Natalia Raices
Foundry     : Natalia Raices
</metadata>
<defs>
<font id="DeliusSwashCapsRegular" horiz-adv-x="1150" >
<font-face units-per-em="2048" ascent="1638" descent="-410" />
<missing-glyph horiz-adv-x="487" />
<glyph unicode=" "  horiz-adv-x="487" />
<glyph unicode="&#x09;" horiz-adv-x="487" />
<glyph unicode="&#xa0;" horiz-adv-x="487" />
<glyph unicode="!" horiz-adv-x="495" d="M154 81q0 48 29.5 86t71.5 38t64.5 -30t22.5 -80t-29.5 -88t-70.5 -38t-64.5 32t-23.5 80zM166 1454q0 102 82 102t82 -102q0 -33 -7.5 -205t-7.5 -291l7 -434q0 -102 -74 -102t-74 102l6 434q0 139 -7 311.5t-7 184.5z" />
<glyph unicode="&#x22;" horiz-adv-x="700" d="M113 1400q0 32 22.5 58.5t59 26.5t59 -29t22.5 -56.5t-9 -95t-13 -119.5t-6 -80t-8.5 -54.5t-16.5 -36.5t-28.5 -10t-28.5 10t-15.5 36.5t-8.5 54.5t-7 80t-13 117.5t-9 97.5zM424 1400q0 32 22.5 58.5t59.5 26.5t59.5 -29t22.5 -56.5t-9.5 -95t-13.5 -119.5t-6 -80 t-8 -54.5t-16.5 -36.5t-29 -10t-28.5 10t-15 36.5t-8 54.5t-7.5 80t-13.5 117.5t-9 97.5z" />
<glyph unicode="#" horiz-adv-x="1644" d="M98 501.5q0 67.5 95 67.5l286 -6l66 338l-264 -6q-94 0 -94.5 67.5t94.5 67.5l284 -6q27 131 41 217l25 135q16 84 84 84q25 0 42 -19.5t17 -43t-16.5 -94t-59.5 -281.5h355l43 219l24 137q16 84 84 84q25 0 42.5 -19.5t17.5 -43t-16.5 -94t-59.5 -281.5l264 6 q94 0 94 -67.5t-94 -67.5l-291 6l-65 -338l266 6q94 0 94 -67.5t-94 -67.5l-289 4q-29 -152 -67 -383q-16 -84 -84 -84q-57 0 -58 72q0 29 28 163t46 236h-354l-68 -389q-16 -84 -84 -84q-27 0 -43 18.5t-16 44t10 77.5l31 143q29 127 39 188l-260 -6q-95 0 -95 67.5z M606 561h361l65 342h-360z" />
<glyph unicode="$" horiz-adv-x="1134" d="M106 190q0 45 35 60q8 2 28.5 2t63.5 -31q131 -106 287 -117q4 381 4 629q-180 100 -268 194.5t-88 213.5t96 208t252 105v80q0 104 69.5 104t69.5 -104v-80q129 -12 218.5 -61.5t89.5 -108.5q0 -25 -16.5 -41t-46.5 -16t-106.5 46t-142.5 48q-4 -328 -4 -494 q231 -139 303 -230t80 -216q0 -156 -103.5 -266.5t-273.5 -137.5q4 -70 4 -98q0 -104 -71.5 -104t-71.5 104l2 94q-160 10 -285 79.5t-125 137.5zM317 1137q0 -106 207 -240q0 231 -4 424q-90 -10 -146.5 -58t-56.5 -126zM647 662q0 -459 2 -551q96 16 162 90q66 78 66 167 t-55.5 154.5t-174.5 139.5z" />
<glyph unicode="%" horiz-adv-x="1646" d="M98 1108q0 154 86 255t207 101t228.5 -89t206 -89t141.5 37l16 57q37 135 76 162q14 18 35.5 18.5t48.5 -14.5q57 -29 56 -107.5t-116 -205.5q-410 -1171 -428 -1217.5t-71 -46.5q-27 0 -45.5 18.5t-18.5 51.5t51 156q219 541 365 987q-35 -16 -93.5 -16.5t-154.5 28.5 q10 -41 10 -84q0 -150 -84 -252t-217 -102t-217 98q-82 100 -82 254zM227 1112.5q0 -104.5 47.5 -172.5t126 -68t125.5 66t47 170t-46 172t-125.5 68t-127 -65.5t-47.5 -170zM944 321.5q0 153.5 86 255t220 101.5t217 -98.5t83 -253t-86 -256t-220 -101.5t-218 99 q-82 100 -82 253.5zM1075 325.5q0 -104.5 46 -172t125 -67.5t126 65.5t47 170t-46 172t-125 67.5t-126 -65.5t-47 -170z" />
<glyph unicode="&#x26;" horiz-adv-x="1566" d="M96 475q0 123 71 238.5t189 195.5q-68 59 -111.5 139t-43.5 160q0 131 94 224.5t258 93.5q106 0 196.5 -47t90.5 -103q0 -31 -18.5 -49t-43 -18t-87 42t-147.5 42t-142.5 -49.5t-57.5 -123t35 -140t88 -103.5q35 14 73 14t74 -10q82 -20 82 -87t-86 -87q-31 -8 -71.5 -8 t-83.5 22q-211 -104 -211 -340q0 -158 102 -266q104 -106 260 -106t251 86t95 202q0 178 -102 178q-16 0 -67.5 -18t-77 -18t-45 21.5t-19.5 61.5t57.5 71.5t141.5 31.5l256 -10q106 0 196 53t90 154q0 154 -155 204q-61 20 -86 39t-25 49q0 68 78 68q113 0 220.5 -111.5 t107.5 -237.5t-76 -204q-131 -143 -406 -143q55 -92 55.5 -223.5t-129.5 -262.5t-355.5 -131t-370 144.5t-144.5 361.5z" />
<glyph unicode="'" horiz-adv-x="389" d="M113 1400q0 32 22.5 58.5t59 26.5t59 -29t22.5 -56.5t-9 -95t-13 -119.5t-6 -80t-8.5 -54.5t-16.5 -36.5t-28.5 -10t-28.5 10t-15.5 36.5t-8.5 54.5t-7 80t-13 117.5t-9 97.5z" />
<glyph unicode="(" horiz-adv-x="618" d="M94 582q0 168 43 352t104.5 316t132 219t118.5 87q86 0 86 -75q0 -31 -13.5 -51.5t-66.5 -90.5q-250 -328 -250 -850q0 -520 276 -866q25 -31 25 -51q0 -43 -39 -43q-66 0 -150 115q-266 358 -266 938z" />
<glyph unicode=")" horiz-adv-x="620" d="M41 1481.5q0 27.5 18 52.5q23 23 69 22.5t116 -88.5q74 -88 134 -219t103 -315t43 -352q0 -582 -268 -940q-82 -113 -147 -113q-39 0 -39 43q0 20 24 51q276 348 277 866q0 518 -252 854q-55 74 -66.5 92.5t-11.5 46z" />
<glyph unicode="*" horiz-adv-x="868" d="M129 1071q0 47 51 70q100 33 168 69q-68 37 -168 70q-51 20 -51 70q0 25 18.5 43t44 18t44 -11t75 -56.5t78.5 -59.5q-8 63 -22 189q0 55 43 77q14 8 33.5 8.5t39 -23.5t19.5 -47.5t-10.5 -92t-12.5 -111.5q23 14 79 59.5t76.5 56.5t43 11t42 -17.5t19.5 -43.5 q0 -47 -53 -70q-127 -49 -166 -70q39 -20 166 -69q53 -18 53 -70q0 -25 -19.5 -43t-44 -18t-42 10t-73.5 55t-81 62l23 -185q0 -55 -43 -78q-14 -8 -33.5 -8t-39 24.5t-19.5 52.5t11 103.5t11 90.5q-25 -16 -81 -61.5t-75.5 -56.5t-42 -11t-43.5 18q-18 18 -18 45z" />
<glyph unicode="+" horiz-adv-x="1083" d="M94 525.5q0 19.5 8 35.5q23 41 78 41l303 -6q-8 254 -8 293q0 84 68 84q33 0 52 -21.5t19 -61.5t-8 -294l299 6h10q43 0 58.5 -24.5t15.5 -43t-15.5 -43t-58.5 -24.5h-58q-54 0 -251 6l8 -321q0 -39 -19.5 -61.5t-51.5 -22.5q-68 0 -68 84q0 45 8 321q-209 -6 -274.5 -6 t-90 19.5t-24.5 39z" />
<glyph unicode="," horiz-adv-x="430" d="M57 -274.5q0 16.5 38 79t38 138.5l-14 131q0 59 26 96q35 39 64 39t49 -8q53 -27 53 -82q0 -8 -2 -19q0 -137 -70.5 -275t-140.5 -138q-16 0 -28.5 11t-12.5 27.5z" />
<glyph unicode="-" horiz-adv-x="876" d="M135 534.5q0 18.5 15.5 43t58.5 24.5h10l219 -6l219 6h11q43 0 58 -24.5t15 -43t-15 -43t-58 -24.5h-11l-219 6l-219 -6h-10q-43 0 -58.5 24.5t-15.5 43z" />
<glyph unicode="." horiz-adv-x="423" d="M115 92q0 49 29.5 88t72.5 39t66.5 -30.5t23.5 -81t-30.5 -89t-71.5 -38.5t-65.5 31.5t-24.5 80.5z" />
<glyph unicode="/" horiz-adv-x="743" d="M115 -229q0 35 75 360q115 485 164 740t70.5 366t32 165t14.5 68q18 86 82 86q74 0 74 -86q0 -29 -25 -137q-188 -793 -303 -1417q-18 -100 -29 -141q-16 -86 -82 -86q-73 0 -73 82z" />
<glyph unicode="0" horiz-adv-x="1347" d="M127 717q0 303 151.5 525t395.5 222t395.5 -222t151.5 -525t-151.5 -525.5t-395.5 -222.5t-395.5 222.5t-151.5 525.5zM274 717q0 -248 114 -430.5t285 -182.5t285 183q115 186 115 431t-114.5 428t-286.5 183t-285 -182t-113 -430z" />
<glyph unicode="1" horiz-adv-x="813" d="M45 920.5q0 19.5 29.5 56.5t86 97.5t95.5 109.5q49 55 92 112l74 93q53 68 108 67q33 0 57.5 -29.5t24.5 -75.5t-5 -170t-5 -394.5t2 -366.5l8 -352q0 -33 -23.5 -60.5t-57 -27.5t-56 28.5t-22.5 73.5t5 166t5 471v514l-98 -123q-14 -18 -54 -70q-111 -145 -143.5 -171.5 t-57 -26.5t-44.5 22q-21 37 -21 56.5z" />
<glyph unicode="2" horiz-adv-x="1122" d="M94 84q0 78 63.5 156.5t88.5 105.5l123 133q96 106 114.5 126t78 85.5t76.5 87t42 50t75 113.5t50 149q0 102 -73 170.5t-169 68.5q-168 0 -235.5 -108.5t-120.5 -108.5q-29 0 -48.5 19.5t-19.5 48.5q0 82 120 183t299 101t286.5 -113.5t107.5 -248.5t-73.5 -242.5 t-140 -179.5t-107.5 -120t-154 -167q-186 -193 -215 -262h285l389 10q43 0 72.5 -22.5t29.5 -52.5q0 -76 -102 -76l-389 10l-350 -10q-103 0 -103 94z" />
<glyph unicode="3" horiz-adv-x="1163" d="M117 240q2 59 57 59q39 0 64 -47q37 -43 108.5 -95.5t217 -52.5t233.5 99q92 98 92 245.5t-103.5 239.5t-246.5 103q-104 -111 -187 -111q-37 0 -69 20q-35 31 -19 84q33 104 201 138q170 188 319 372l-237 9l-311 -11h-17q-49 0 -65.5 28t-16.5 48.5t16.5 48t65.5 27.5 l328 -10l311 8q123 0 123 -94q0 -45 -46 -99.5t-138 -147.5t-176 -194q199 -41 307 -163.5t108 -304t-130 -326t-357 -144.5q-172 0 -303 94q-129 97 -129 177z" />
<glyph unicode="4" horiz-adv-x="1183" d="M49 552q0 17 5 33.5t41 72t94.5 125t216.5 270.5l239 305q74 96 143 96q106 0 107 -123q0 -43 -5 -169t-5 -554l116 6q45 0 74 -20.5t29 -54t-27.5 -55t-58.5 -21.5l-133 4l10 -385v-14q0 -53 -37 -76q-23 -12 -43 -12l-43 12q-37 23 -37 76v14l8 389l-151 2l-449 -8h-6 q-55 0 -76 43q-12 27 -12 44zM236 604h509q4 201 5 367l-5 286q-216 -250 -509 -653z" />
<glyph unicode="5" horiz-adv-x="1177" d="M127 285q0 31 17.5 50t44 19t40 -12t37.5 -49l29 -43q123 -145 278.5 -145.5t252 114.5t96.5 261.5t-85 241.5t-227.5 95t-287.5 -112q-47 -39 -76 -39q-80 0 -80 86q0 23 13.5 134t13.5 188t-11.5 171t-11.5 103q0 96 113 96l311 -10l291 10h16q49 0 65.5 -27.5 t16.5 -48t-16.5 -48.5t-65.5 -28h-16l-291 11q-88 0 -180 -4.5t-95 -4.5q12 -104 12.5 -204.5t-12.5 -210.5l-4 -37q143 111 301 110q217 0 335 -134t118 -341t-133 -357.5t-363 -150.5q-180 0 -313 110t-133 206z" />
<glyph unicode="6" horiz-adv-x="1181" d="M127 545q0 379 210 644t531 265q131 0 131 -72q0 -76 -112 -75q-236 0 -402 -168t-196 -400q53 80 148 134.5t206 54.5q201 0 315.5 -139.5t114.5 -332t-121 -340t-345 -147.5t-353 162q-127 164 -127 414zM289 435q0 -140 94 -237.5t230.5 -97.5t224.5 100.5t88 247 t-83 248t-226.5 101.5t-235.5 -111t-92 -251z" />
<glyph unicode="7" horiz-adv-x="1003" d="M63 1368q0 76 103 76l332 -10l331 10q123 0 123 -96q0 -41 -39 -127t-117.5 -242t-185 -402.5t-164.5 -445.5l-22 -82q-27 -70 -84 -69q-70 0 -70 88q0 14 10.5 67t43.5 135l28 72q47 121 64.5 159t122.5 281l227 512l-268 9l-332 -11q-103 0 -103 76z" />
<glyph unicode="8" horiz-adv-x="1179" d="M121 369q0 287 336 438q-131 74 -194.5 153.5t-63.5 196.5t109.5 212t278.5 95t281.5 -95t112.5 -210t-59.5 -194.5t-182.5 -157.5q319 -158 320 -438q0 -160 -132 -280t-337 -120t-337 120t-132 280zM268 385q0 -127 91.5 -204t230.5 -77t230 77t91 204q0 205 -321 342 q-322 -137 -322 -342zM342 1148q0 -77 60.5 -136.5t191.5 -130.5q125 68 184.5 129t59.5 138t-75 129t-171 52t-173 -52t-77 -129z" />
<glyph unicode="9" horiz-adv-x="1177" d="M104 986.5q0 189.5 127 334.5q129 143 346.5 143t345.5 -162.5t128 -412.5q0 -389 -208 -649t-534 -260q-131 0 -131 71q0 76 113 76q242 0 404.5 163t193.5 404q-53 -80 -148.5 -134t-205.5 -54q-201 0 -316 145.5t-115 335zM252 985q0 -145 83 -246.5t226.5 -101.5 t235.5 110.5t92 250t-92 237.5t-227.5 98t-227.5 -100q-90 -103 -90 -248z" />
<glyph unicode=":" horiz-adv-x="462" d="M135 92q0 49 30 88t73 39t66.5 -30.5t23.5 -81t-31 -89t-72 -38.5t-65.5 31.5t-24.5 80.5zM135 917.5q0 49.5 30 88t73 38.5t66.5 -30.5t23.5 -80.5t-31 -89t-72 -39t-65.5 31.5t-24.5 81z" />
<glyph unicode=";" horiz-adv-x="495" d="M96 -274.5q0 16.5 38 79t38 138.5l-14 131q0 59 26 96q35 39 63.5 39t49.5 -8q53 -27 53 -82q0 -8 -2 -19q0 -137 -70.5 -275t-140.5 -138q-16 0 -28.5 11t-12.5 27.5zM158 917.5q0 49.5 29.5 88t72.5 38.5t66.5 -30.5t23.5 -80.5t-29.5 -89t-71.5 -39t-66.5 31.5 t-24.5 81z" />
<glyph unicode="&#x3c;" horiz-adv-x="1112" d="M90 604q0 61 127 121q47 25 168 82l244 123q156 80 192.5 95t75.5 15q70 0 70 -65v-10q0 -29 -31 -49.5t-140.5 -65.5t-200.5 -88t-137 -63.5t-114 -59.5q-35 -23 -35 -37q0 -33 400 -209q178 -80 192 -88q68 -37 68 -88q0 -29 -21.5 -49.5t-33.5 -20.5h-13 q-61 0 -188 74q-223 119 -330 168l-145 70q-148 65 -148 145z" />
<glyph unicode="=" horiz-adv-x="1212" d="M160 387.5q0 18.5 15 43t58 24.5h11l362 -6l363 6h10q43 0 58.5 -24.5t15.5 -43t-15.5 -43.5t-58.5 -25h-10l-363 7l-362 -7h-11q-43 0 -58 25t-15 43.5zM160 682q0 18 15 43t58 25h11l362 -7l363 7h10q43 0 58.5 -25t15.5 -43t-15.5 -43t-58.5 -25h-10l-363 7l-362 -7 h-11q-43 0 -58 25t-15 43z" />
<glyph unicode="&#x3e;" horiz-adv-x="1112" d="M143 229q0 33 33 54q41 27 140.5 70.5t293 131.5t193.5 117q0 20 -115 80q-10 6 -27.5 13t-19.5 10l-117 53q-57 29 -118 53l-117 49q-145 49 -146 113q0 23 23 49q10 6 18.5 11t15.5 7t17 2h16q4 0 16.5 -4t17.5 -5t22 -9q68 -29 192 -94l246 -123q162 -74 217 -109 q76 -47 76 -88q0 -25 -14 -61q-18 -25 -57.5 -49.5t-186 -93t-221 -109.5t-131 -70.5t-102.5 -53t-87 -23.5q-78 -1 -78 79z" />
<glyph unicode="?" horiz-adv-x="923" d="M100 1335q0 72 105.5 146.5t234.5 74.5q170 0 275.5 -105t105.5 -265t-127 -293q-35 -39 -106 -111q-127 -127 -127 -246.5t-72 -119.5q-76 0 -76 114q0 154 127 293q35 39 107 111q127 133 127 243.5t-71 179t-146 68.5q-133 0 -193.5 -77.5t-93.5 -77.5t-51.5 18 t-18.5 47zM293 81q0 48 29.5 86t71.5 38t64.5 -30t22.5 -80t-29.5 -88t-70.5 -38t-64.5 32t-23.5 80z" />
<glyph unicode="@" horiz-adv-x="2054" d="M121 446v27q0 252 117.5 480.5t329.5 364.5t458 136h14q395 0 654.5 -243.5t259.5 -663.5q0 -244 -111.5 -404.5t-271.5 -160.5q-227 0 -268 258q-49 -109 -139.5 -183.5t-217.5 -74.5t-211 81q-152 145 -151 400q0 211 126 367.5t324 156.5q125 0 254 -92q14 92 86 92 q80 0 80 -141q0 -25 -41 -348v-90q0 -289 156 -289q90 0 160.5 105.5t70.5 337t-108 407.5q-104 174 -274.5 262t-379.5 88q-315 0 -539.5 -255t-224.5 -608.5t195 -572.5t461 -219q215 0 347 81t157.5 81t35.5 -16q16 -18 16.5 -45t-42.5 -66q-59 -63 -205.5 -116.5 t-318.5 -53.5q-340 0 -569.5 255.5t-229.5 661.5zM727 480.5q0 -154.5 58.5 -262t166 -107.5t196.5 95t142 236v306q-106 104 -242.5 104t-228.5 -108.5t-92 -263z" />
<glyph unicode="A" horiz-adv-x="1673" d="M66 190q0 141 143 284.5t373 197.5q90 250 168.5 493.5t89.5 268.5q43 123 118 122q84 0 125 -106q10 -29 58 -170l202 -614q84 -25 137.5 -64t53.5 -67q0 -47 -51 -48q-18 0 -99 29q88 -285 115 -325.5t43.5 -49t36.5 -12.5q43 -8 43 -23q0 -61 -33 -99t-82 -38 q-90 0 -137 133q-92 274 -147 455q-156 27 -284 27t-234 -21q-133 -334 -197 -434q-102 -160 -238 -160q-94 0 -149 63.5t-55 157.5zM199 195q0 -43 21.5 -67t55.5 -24q113 0 269 426q-143 -47 -244.5 -147t-101.5 -188zM739 700q90 14 200 14.5t243 -22.5 q-195 631 -220.5 631t-173.5 -467z" />
<glyph unicode="B" horiz-adv-x="1519" d="M90 216q0 40 20.5 61.5t49.5 21.5h9q9 0 55 -27.5t104.5 -64.5t154 -65.5t189.5 -28.5h12q244 0 403.5 106.5t159.5 274.5q0 96 -57 178t-156 131q-211 -156 -493 -193l8 -262v-14q0 -53 -37 -76q-23 -14 -45 -14l-45 14q-39 25 -39 80l10 266q-135 6 -209.5 64.5 t-74.5 136.5t74.5 135t209.5 78q-18 313 -18 356q0 193 373 193q262 0 406 -107.5t144 -267.5t-159 -297q272 -150 272 -397q0 -162 -100.5 -286t-260 -183.5t-321.5 -59.5q-180 0 -329.5 44t-229.5 103.5t-80 99.5zM250 813q0 -68 145 -72v140q-145 -17 -145 -68zM537 750 q90 4 199.5 35.5t170.5 72.5q-113 37 -313 37q-37 0 -57 -4v-141zM537 1376q0 -72 4 -346q248 0 469 -78q137 104 137 229.5t-102.5 183.5t-255 58t-252.5 -47z" />
<glyph unicode="C" horiz-adv-x="1425" d="M117 771q0 335 190.5 565.5t476.5 230.5q227 0 373 -127t146 -297q0 -133 -84 -220t-199 -87t-193 73q-78 78 -77.5 167t39 148.5t94.5 59.5q31 0 51 -17.5t20 -43t-28.5 -65.5t-28.5 -84t35 -73.5t91 -29.5t94 44t38 118q0 109 -98 198q-94 92 -273 92 q-219 0 -360 -193.5t-141 -455.5t147.5 -461.5t372.5 -199.5q100 0 187 26.5t132 63.5q109 90 132.5 90t40 -15.5t16.5 -37.5q0 -80 -152.5 -175.5t-357.5 -95.5q-295 0 -490 232q-194 235 -194 570z" />
<glyph unicode="D" horiz-adv-x="1685" d="M102 504q0 166 105.5 283.5t259.5 146.5q0 174 -8 414q-98 0 -98.5 69.5t137 104t305.5 34.5t321.5 -67.5t247.5 -181.5q199 -236 199 -543q0 -213 -97.5 -389t-291 -291t-458.5 -115t-443.5 154t-178.5 381zM262 504q0 -160 129 -277q133 -115 340 -114q285 0 478.5 187 t193.5 443t-152 457q-76 98 -198.5 155.5t-272.5 57.5q-72 0 -153 -18l-11 -451q137 -8 248 -85t111 -161q0 -49 -41 -63q-10 -6 -30.5 -6t-39 15t-53.5 54t-53 56q-70 53 -144 53l2 -148l7 -122q4 -53 4 -75t-1 -44.5t-23.5 -50t-46.5 -27.5t-42 8q-53 27 -53 92l8 252v99 q-94 -27 -150.5 -106t-56.5 -181z" />
<glyph unicode="E" horiz-adv-x="1292" d="M109 463q0 274 239 432q-113 115 -112.5 289t137.5 278q139 104 313 104.5t305 -64t131 -142.5q0 -49 -41 -66q-12 -2 -35.5 -2t-70.5 31q-133 100 -267.5 100t-222.5 -63q-98 -61 -98 -189.5t90 -201.5q150 72 279 71.5t182 -51.5q61 -45 61 -112q0 -53 -34 -95 q-76 -82 -236 -82q-66 0 -145.5 30t-137.5 73q-174 -119 -174 -322q0 -137 121 -252.5t329 -115.5t320.5 88t143.5 88q57 0 57 -53q0 -45 -65.5 -106.5t-189.5 -111t-255 -49.5q-289 0 -459 152q-165 154 -165 342zM559 877q72 -53 180.5 -53.5t108.5 50.5q0 43 -100.5 43.5 t-165.5 -30.5z" />
<glyph unicode="F" horiz-adv-x="1314" d="M51 1427q0 63 51.5 122t154.5 59t164.5 -77t76.5 -206q356 0 653 227q49 33 68 33q49 0 57 -53q0 -86 -124 -170t-304 -136t-342 -52v-338q68 -10 161 -10.5t218 23t140 23.5t34.5 -15t19.5 -42q0 -57 -146.5 -94t-318.5 -37q-53 0 -108 4l10 -590q0 -119 -84 -118.5 t-84 118.5l10 604q-135 23 -135 95q0 33 19 51q20 20 39.5 20t76.5 -12l-6 330q-137 16 -219 80.5t-82 160.5zM193 1421q0 -70 155 -88q-16 141 -94 142q-25 0 -43 -17t-18 -37z" />
<glyph unicode="G" horiz-adv-x="1599" d="M117 770q0 334 194 565q197 231 494 232q182 0 331.5 -71t149.5 -157q0 -51 -41 -65q-14 -4 -37 -4q-41 0 -143 76q-90 78 -260 77q-227 0 -374.5 -193.5t-147.5 -455.5t141 -461.5t358 -199.5q180 0 307.5 142t129.5 320q-137 -49 -272.5 -49t-214.5 50.5t-79 127 t76 144.5q78 68 219.5 67.5t241.5 -52.5t141 -103q37 14 100.5 61t84.5 47q53 0 53 -61q0 -70 -197 -174q0 -287 -167 -476.5t-421 -189.5q-289 0 -479 234q-188 235 -188 569zM813 713q0 -53 134 -53.5t251 38.5q-33 47 -158 70q-55 10 -98 10t-65 -14q-64 -20 -64 -51z " />
<glyph unicode="H" horiz-adv-x="1464" d="M92 813q6 72 55 72q33 0 84 -33l-12 600q0 45 24.5 74.5t59.5 29.5t59.5 -28.5t24.5 -75.5t-5 -176t-5 -479q88 -31 235 -31q328 0 488 201l-10 452q0 137 90 137q72 0 86 -63q16 -59 16 -193.5t-39 -404.5l14 -811q2 -63 -40 -90q-20 -14 -43 -14l-44 14q-43 27 -40 90 l12 623v65q-78 -66 -220.5 -104.5t-272.5 -38.5t-232 20l10 -565q2 -63 -41 -90q-23 -14 -43 -14l-43 14q-43 27 -41 90l8 600q-135 45 -135 129z" />
<glyph unicode="I" horiz-adv-x="1224" d="M76 357.5q0 148.5 94 241.5t217 93t194.5 -77.5t71.5 -190.5t-75 -164q-25 -14 -41 -14q-31 0 -27 30q0 2 6 23q12 57 12 110.5t-43 99.5t-108.5 46t-109.5 -52t-44 -141.5t66 -171.5q68 -78 196 -77q170 0 266.5 113.5t96.5 318.5l2 364q0 285 -4 465q-121 -18 -203 -18 q-442 0 -442 129q0 72 78 71q10 0 134 -25.5t230.5 -25.5t252.5 25.5t161 25.5q86 0 86 -68.5t-142 -92.5q-4 -193 -4 -486l-2 -346q0 -303 -144 -448.5t-350 -145.5t-317 119q-108 121 -108 269.5z" />
<glyph unicode="J" horiz-adv-x="1179" d="M16 -55.5q0 161.5 98.5 269.5t228.5 108t206 -78t76 -190.5t-78 -164.5q-25 -14 -39 -14q-31 0 -27 31q0 2 6 24q12 55 12.5 109.5t-44.5 100.5t-117 46t-123 -70.5t-51 -178t75.5 -193.5t206.5 -86q166 0 258.5 132t92.5 366q0 559 -3 839.5t-3 380.5q-119 -18 -203 -18 q-442 0 -443 129q0 72 78 72q10 0 133 -26t230.5 -26t254 26t160.5 26q86 0 86 -69t-141 -93v-29l-4 -375l-2 -506v-333q0 -319 -138 -477t-346 -158t-325 131q-115 133 -115 294.5z" />
<glyph unicode="K" horiz-adv-x="1445" d="M86 823q0 86 69.5 151.5t188.5 80.5l-10 397q0 47 22.5 75.5t61.5 28.5t61.5 -28.5t22.5 -66.5t-10 -412q201 -35 307 -177q98 111 168.5 269.5t95.5 324.5q16 90 84 90q31 0 50.5 -20t19.5 -55q0 -145 -102.5 -364.5t-233.5 -362.5q205 -420 329 -621q84 -135 183 -141 h16q35 0 35 -10v-11q0 -61 -36 -99t-85 -38t-83 20.5t-47 35t-42 49.5q-59 68 -174 284l-221 434q-117 -66 -264 -84l14 -489v-14q0 -53 -39 -78q-23 -12 -45 -12l-45 12q-39 25 -39 78l6 510q-121 25 -189.5 91t-68.5 152zM227 817q0 -61 121 -90v176q-55 -8 -88 -31.5 t-33 -54.5zM487 895l2 -180q131 12 195 57q-68 100 -197 123z" />
<glyph unicode="L" horiz-adv-x="1271" d="M72 98q0 49 30 82q31 35 70 35t88 -14q41 135 41 581q0 236 -26.5 457t-26.5 246.5t22.5 50.5t57.5 25q74 0 90 -105q31 -223 31 -668.5t-43 -629.5q141 -45 344 -45q123 0 212 58t89 155q0 47 -30 80.5t-73 33.5q-80 0 -96 -80q-20 -80 -59 -79q-25 0 -43.5 32.5 t-18.5 71.5q0 76 62.5 133t159 57t173 -67.5t76.5 -181.5q0 -162 -133 -256q-141 -100 -329.5 -100.5t-411.5 57.5q-96 -45 -143.5 -45t-80 33.5t-32.5 82.5z" />
<glyph unicode="M" horiz-adv-x="2025" d="M63 266.5q0 112.5 77 201.5t184 89q45 0 74.5 -21.5t29.5 -62.5q0 -76 -98 -76q-45 0 -78 -37.5t-33 -94t31 -92.5t86 -36q109 0 148.5 156t39.5 499t-6 490l-4 184q0 33 23 60q18 27 55 26q57 0 90 -71q281 -641 465 -1010q201 387 369 799q47 115 94 221q29 61 84 61 q84 0 84 -104l-11 -680q0 -512 78 -612q10 -10 31.5 -12.5t38 -4.5t16.5 -14q0 -61 -35.5 -100t-87.5 -39q-184 0 -184 491v688l-395 -868q-29 -63 -74 -64q-47 0 -84 70q-2 4 -92 215t-307 656v-478q0 -326 -56.5 -482.5t-154.5 -205.5q-61 -29 -135 -28q-121 0 -192 87 t-71 199.5z" />
<glyph unicode="N" horiz-adv-x="1798" d="M63 270.5q0 112.5 77 201.5t184 89q45 0 74.5 -21.5t29.5 -62.5q0 -76 -98 -76q-45 0 -78 -37.5t-33 -94t31 -92.5t86 -36q190 0 190 590q0 162 -32.5 424t-32.5 306t28.5 71t67.5 27q57 0 92 -72q111 -215 315.5 -575.5t354.5 -598.5q-8 0 -19.5 286t-11.5 376 q0 227 45 387q27 92 87.5 144.5t139 52.5t134 -42t55.5 -97.5t-47 -55.5q-14 0 -59.5 18.5t-79.5 18.5q-129 0 -129 -592q0 -139 22.5 -426t22.5 -319.5t-28 -59.5t-65 -27q-55 0 -96 72q-102 182 -233 408l-260 465q-113 209 -156 274q29 -270 29 -514q0 -698 -344 -698 q-121 0 -192 87t-71 199.5z" />
<glyph unicode="O" horiz-adv-x="1660" d="M113 766q0 143 29.5 232t88.5 89q29 0 47.5 -19t18.5 -39.5t-13.5 -107.5t-13.5 -155q0 -301 170 -477t400 -176q166 0 294 92t189 236.5t61 303.5v21q0 270 -119.5 463.5t-318.5 193.5q-139 0 -245.5 -101t-157.5 -248.5t-51 -252t6 -168t11 -99.5t5 -42q0 -51 -47 -51 q-41 0 -76 105.5t-35 219.5q0 313 162 547t424 234t431 -225.5t169 -562.5t-193.5 -573.5t-503.5 -236.5t-521 223.5t-211 573.5z" />
<glyph unicode="P" horiz-adv-x="1415" d="M80 856q0 113 87 200t230 107l-10 244q4 72 66 98q127 51 301 51q254 0 423 -146t169 -343t-101 -330q-188 -252 -600 -252q-74 0 -94 2q10 -352 10 -400t-24 -79q-25 -31 -48.5 -31t-42.5 11q-53 27 -53 96l15 428q-156 33 -244 131q-84 100 -84 213zM223 857 q0 -58 48 -117.5t139 -88.5q0 221 -7 375q-84 -10 -132 -60.5t-48 -108.5zM545 1389q0 -74 4 -226q127 -16 222 -92t95 -153q0 -33 -19.5 -51.5t-46 -18.5t-61.5 41q-113 131 -192 137q2 -53 2 -401q12 -2 57 -2q252 0 416 108.5t164 329.5q0 152 -128 253t-306 101 q-125 1 -207 -26z" />
<glyph unicode="Q" horiz-adv-x="1697" d="M117 807q0 260 51 319q25 31 60.5 31t54.5 -24q20 -20 20 -45t-16.5 -75t-16.5 -222q0 -279 174 -476.5t420 -197.5q123 0 174 30q-162 229 -161.5 263t18.5 60t43 27t45.5 -13.5t31.5 -31t45 -75t99 -166.5q123 88 194.5 246.5t71.5 343.5q0 262 -133 438t-332.5 176 t-335 -166t-135.5 -422q0 -135 31 -227t31 -106q0 -43 -43 -43q-59 0 -110.5 123.5t-51.5 254.5q0 307 174 522.5t440.5 215.5t442.5 -225.5t176 -555.5q0 -217 -90 -402t-246 -296q158 -215 168 -239.5t10 -45t-19.5 -44t-43.5 -23.5q-47 0 -80 49q-8 10 -90 137l-64 101 q-131 -53 -260 -54q-307 0 -528 242q-219 244 -219 596z" />
<glyph unicode="R" horiz-adv-x="1513" d="M86 766q0 82 72.5 143.5t185.5 71.5l-16 408q0 88 71 122q123 55 295 56q250 0 411 -135.5t161 -335.5q0 -141 -83 -271.5t-222 -210.5q231 -418 270 -477q94 -143 182 -149h17q35 0 34 -11v-10q0 -53 -35.5 -95t-72.5 -42t-82 24.5t-118 125t-148 245.5l-189 330 q-127 -45 -260 -45q-53 0 -67 2l12 -428q0 -47 -22.5 -75.5t-61.5 -28.5t-61.5 28.5t-22.5 103t8 416.5q-127 29 -192.5 92.5t-65.5 145.5zM227 766.5q0 -64.5 121 -104.5v186q-121 -17 -121 -81.5zM483 1376q0 -117 9 -403q117 -12 224 -80t171 -160q100 61 159.5 158.5 t59.5 200.5q0 154 -119 242.5t-295 88.5q-96 0 -209 -47zM489 647q47 -4 117 -4t139 27q-88 131 -256 170v-193z" />
<glyph unicode="S" horiz-adv-x="1189" d="M94 350.5q0 143.5 76 222t190.5 78.5t176 -57t61.5 -131t-39 -121q-23 -31 -53.5 -42t-51 -1t-20.5 26.5t10.5 38t18.5 42.5q7 18 7 32q0 26 -24 43q-43 29 -86 29t-80.5 -36t-37.5 -99q0 -92 90 -177t245.5 -85t259 92t103.5 225q0 180 -270 318q-14 8 -63.5 31.5 t-68 33.5t-60.5 32.5t-65.5 39t-56.5 39.5q-49 33 -104 94q-78 94 -78 222t125 227.5t294 99.5t287.5 -63.5t118.5 -143.5q0 -49 -41 -66q-14 -4 -36.5 -4t-44 14.5t-49 39t-50.5 38.5q-61 41 -167.5 41t-189.5 -55t-83 -136t78 -151q70 -61 219 -142t199 -112 q121 -72 195.5 -175t74.5 -222q0 -188 -146.5 -324.5t-374 -136.5t-358.5 119t-131 262.5z" />
<glyph unicode="T" horiz-adv-x="1288" d="M41 1485q-2 47 41 69q20 10 39.5 10.5t40.5 -16.5q31 -16 53 -32q80 -55 338 -95q53 109 165.5 167.5t240.5 58.5t198 -58q74 -55 74 -130t-84 -138.5t-297 -63.5q-117 0 -182 7q-20 -61 -20.5 -411.5t5.5 -561.5t6 -233.5t-23.5 -50t-61 -27.5t-59 27.5t-22.5 50t-1 45 t4 154.5t4 511t22 510q-109 8 -239 47q-242 74 -242 160zM702 1405q53 -10 117 -10t161 18.5t97 46.5q0 43 -133 43q-172 0 -242 -98z" />
<glyph unicode="U" horiz-adv-x="1624" d="M57 1290q0 86 54 176q66 100 200.5 100.5t206.5 -93t72 -207t-52.5 -391t-52.5 -351.5q0 -190 61.5 -300.5t183.5 -110.5t229.5 145t163 322.5t65.5 345.5q-6 143 -6 495q0 135 88 135q106 0 106 -170q0 -41 -53 -524q4 -221 45 -448.5t80 -268.5q12 -14 55 -17t43 -24 q0 -57 -39 -96q-41 -41 -81 -41t-54 13q-31 16 -65 73q-31 57 -50 159l-20 113q-2 11 -9 67.5t-11 72.5q-49 -190 -171 -343t-326 -153t-306 158q-90 145 -90 320.5t56 433.5t56 366q0 166 -125 166q-47 0 -78.5 -37t-31.5 -86t18.5 -82.5t36.5 -52t18 -29.5q0 -49 -57 -49 t-108.5 63.5t-51.5 149.5z" />
<glyph unicode="V" horiz-adv-x="1509" d="M49 1337q0 88 61.5 159t163.5 71q197 0 263 -137q57 -113 57 -332q-2 -119 -8 -357q0 -285 55 -451.5t152 -166.5q68 0 122 116.5t133.5 392t139.5 484.5q92 336 98 352q29 86 90 86q39 0 58.5 -26.5t19.5 -55t-58.5 -214t-174 -577.5t-174.5 -513q-98 -199 -266.5 -199 t-259.5 200t-91 564l6 348q0 334 -151 334q-43 0 -70 -25.5t-24.5 -53t18.5 -46.5q12 -8 43 -20q66 -27 65 -74q0 -72 -77.5 -72t-134 62.5t-56.5 150.5z" />
<glyph unicode="W" horiz-adv-x="2170" d="M49 1336q0 89 61.5 160t161.5 71q197 0 263 -137q57 -113 57 -332l-8 -357q0 -287 50 -452.5t136 -165.5q100 0 184 171t84 368l-4 456q0 135 88 135q106 0 107 -170q0 -53 -41 -434q2 -188 86 -353t182 -165q90 0 141.5 164t51.5 453l-9 350q0 215 52 332 q57 137 243 137q76 0 134.5 -49.5t58.5 -98.5t-45 -49q-14 0 -57.5 22.5t-75.5 22.5q-152 0 -152 -334l6 -342q0 -367 -89 -563t-265 -196q-113 0 -199 101t-137 279q-49 -182 -136 -286.5t-202 -104.5q-174 0 -261 196.5t-87 567.5l6 348q0 334 -151 334q-43 0 -69 -25.5 t-23.5 -54t18.5 -47.5q12 -8 43 -20q66 -27 65 -74q0 -72 -77.5 -72t-134 62.5t-56.5 151.5z" />
<glyph unicode="X" horiz-adv-x="1540" d="M57 1335q0 121 95 189q53 41 124 41h9q139 0 247 -146q113 -145 238 -471q72 115 196 329t144 247q25 33 66 32.5t57 -22t16 -48t-15 -58t-69 -119.5l-319 -510q244 -686 405 -686q41 0 63.5 25.5t22.5 63.5t-26.5 58.5t-61.5 22.5q-86 6 -86 42.5t35 55t78 18.5 q80 0 138.5 -59t58.5 -148.5t-62.5 -157t-169 -67.5t-209.5 115q-119 141 -284 575q-207 -332 -289 -473l-92 -155q-35 -49 -80 -49q-82 0 -82 71q0 35 18 62l90 137q154 223 363 551q-111 295 -214.5 456.5t-182.5 161.5q-57 0 -76 -53q-6 -18 -6 -39.5t16 -33t47 -23.5 q66 -27 66 -74q0 -72 -77 -72t-136 62q-56 55 -56 149z" />
<glyph unicode="Y" horiz-adv-x="1193" d="M43 1460q0 96 74 96q20 0 40.5 -19t30 -47t25.5 -92.5t41 -146.5q70 -233 192 -387q68 -84 129 -84q31 0 46 8q90 571 235 715q61 61 134 61.5t111 -45.5t38 -124q0 -170 -118 -363.5t-257 -331.5q-16 -102 -16 -276t10 -328.5t10 -185.5t-23.5 -57.5t-60.5 -26.5 q-78 0 -90 190q-2 49 -2 174t24 445q-25 -4 -53 -4q-104 0 -189 78.5t-164 246.5t-123 306.5t-44 197.5zM770 889q78 90 153.5 243.5t75.5 241.5q0 43 -22 43q-43 0 -121 -213t-86 -315z" />
<glyph unicode="Z" horiz-adv-x="1275" d="M27 85q0 34 11 61.5t52 52t100 28.5q94 154 307.5 509.5t366.5 668.5q-143 -35 -254.5 -35t-191.5 5t-142.5 17.5t-112.5 40t-46 66.5q0 68 71 68q8 0 129 -27t248 -27t262.5 27t155.5 27q96 0 96 -80q0 -43 -63.5 -159t-174 -303t-190.5 -320q-233 -383 -305 -512 q256 -80 403.5 -80t230.5 53t83 146.5t-72 121.5q-25 12 -55.5 12t-56.5 -34q-29 -29 -29 -72q0 -28 12 -64q6 -18 6 -20q2 -30 -31 -30q-7 0 -16 1q-49 8 -78 72q-14 33 -14 54v28q0 70 63.5 134.5t162 64.5t175 -73t76.5 -210t-121.5 -232.5t-310 -95.5t-493.5 92 q-57 -74 -126 -73.5t-96 28.5q-32 35 -32 69z" />
<glyph unicode="[" horiz-adv-x="712" d="M156 -397.5q0 24.5 6 327.5t6 612.5t-6 612.5t-6 327.5t23.5 43t60.5 18.5l157 -8l178 6h11q43 0 58 -24.5t15 -43t-15 -43t-58 -24.5h-11l-178 6h-90q-12 -700 -12 -870t12 -871h90l178 6h11q43 0 58 -24.5t15 -43t-15 -43t-58 -24.5h-11l-178 6l-157 -8 q-37 0 -60.5 18.5t-23.5 43z" />
<glyph unicode="\" horiz-adv-x="743" d="M117 1470q0 86 73 86q63 0 82 -86l27 -141q102 -555 190 -930l115 -489q25 -109 25 -139q0 -82 -74 -82q-68 0 -82 86l-27 141q-158 854 -305 1417q-24 108 -24 137z" />
<glyph unicode="]" horiz-adv-x="712" d="M53 -389.5q0 18.5 15.5 43t58.5 24.5h10l178 -6h91q12 700 12 870.5t-12 870.5h-91l-178 -6h-10q-43 0 -58.5 24.5t-15.5 43t15.5 43t58.5 24.5h10l178 -6l158 8q37 0 60.5 -18.5t23.5 -43t-6 -328.5t-6 -612.5t6 -612.5t6 -327.5t-23.5 -42t-60.5 -18.5l-158 8l-178 -6 h-10q-43 0 -58.5 24.5t-15.5 43z" />
<glyph unicode="^" horiz-adv-x="1067" d="M86 813q0 39 111 223l92 156q31 53 67 123l105 194q27 47 75 47t74 -45q61 -127 208 -378.5t157 -278.5t10 -45q4 -16 -16.5 -35.5t-56 -19.5t-62.5 49q0 4 -78 149q-217 424 -240 424q-14 0 -165.5 -283.5t-151.5 -289.5q-27 -49 -61 -49q-68 0 -68 59z" />
<glyph unicode="_" horiz-adv-x="1179" d="M102 -389.5q0 18.5 15.5 43t58.5 24.5l414 -6l403 6h11q43 0 58 -24.5t15 -43t-15 -43t-58 -24.5h-11l-403 6l-404 -6h-10q-43 0 -58.5 24.5t-15.5 43z" />
<glyph unicode="`" horiz-adv-x="583" d="M141 1491q0 39 45 57q16 8 41 8q47 0 95 -110q29 -63 73.5 -113.5t44.5 -75.5q0 -43 -55 -43t-149 89q-92 90 -93 176q-2 6 -2 12z" />
<glyph unicode="a" horiz-adv-x="1169" d="M98 489q0 223 129 389t332 166q154 0 266 -104q0 104 78 104q94 0 94 -140t-41 -408q0 -150 21.5 -249.5t54.5 -111.5q12 -6 29.5 -8t25 -6t7.5 -17q0 -57 -31 -90.5t-89.5 -33.5t-91 74.5t-32.5 195.5q-55 -119 -153.5 -194.5t-222.5 -75.5t-212 81q-164 152 -164 428z M244 499q0 -171 63.5 -278.5t176 -107.5t207.5 100t147 264l-11 316q-121 119 -256 118.5t-231 -121t-96 -291.5z" />
<glyph unicode="b" horiz-adv-x="1130" d="M135 120q0 140 41 408q0 139 -18.5 525.5t-18.5 417t21.5 59.5t45 29t44.5 -11q49 -23 49 -80v-14v-647q55 106 149.5 171.5t213 65.5t206.5 -81q166 -152 166 -428q0 -223 -129 -389t-332 -166q-152 0 -266 104q0 -104 -78 -104q-94 0 -94 140zM295 547l10 -316 q121 -119 256 -118.5t231.5 121t96.5 291.5t-63.5 278.5t-176 107.5t-208 -100t-146.5 -264z" />
<glyph unicode="c" horiz-adv-x="1042" d="M94 512q0 227 143.5 385t380.5 158q127 0 227.5 -58.5t100.5 -116t-41 -73.5q-12 -4 -33.5 -4t-54.5 28q-109 90 -217 91q-141 0 -248 -119q-104 -119 -104 -290t107.5 -291t262.5 -120q123 0 236 82q39 27 59 27q51 0 51.5 -54.5t-118.5 -121.5q-121 -66 -250 -66 q-213 0 -358 158q-144 158 -144 385z" />
<glyph unicode="d" horiz-adv-x="1204" d="M96 489q0 223 135.5 389t346.5 166q154 0 290 -100q4 381 4 465t19.5 115.5t62.5 31.5q100 0 101 -165q0 -63 -8 -148l-25 -268q-23 -250 -27 -301q0 -268 19.5 -400.5t70.5 -142.5q53 0 54 -31q0 -45 -30 -82.5t-85 -37.5q-115 0 -141 274q-152 -274 -379 -274 q-135 0 -230 86q-178 157 -178 423zM248 509q0 -163 71 -282q72 -115 195 -114q215 0 354 354v326q-121 119 -290 118q-129 0 -229.5 -119.5t-100.5 -282.5z" />
<glyph unicode="e" horiz-adv-x="1103" d="M49 586q0 47 35 61q12 4 31.5 4t54.5 -18q47 186 171 304t291 118t269.5 -92.5t102.5 -241t-127 -224t-316 -75.5q-106 0 -260 31q12 -145 107.5 -248t222.5 -103t209 62.5t107.5 62.5t41 -15t15.5 -38q0 -57 -118 -131t-255 -74q-213 0 -339 150.5t-134 359.5 q-109 35 -109 107zM303 584q111 -33 249 -33t222 47t84 129t-56.5 138.5t-152.5 56.5q-135 0 -226 -101.5t-120 -236.5z" />
<glyph unicode="f" horiz-adv-x="669" d="M41 963q0 31 22.5 48t55.5 17l102 -4v174q0 180 70.5 269t171 89t167 -36.5t66.5 -81.5q0 -68 -57 -68q-14 0 -68.5 24.5t-85.5 24.5q-127 0 -127 -239v-156l199 4q33 0 55.5 -17.5t22.5 -47.5q0 -61 -78 -62l-199 4l7 -735q0 -203 -75 -312.5t-154 -109.5t-79 39 q0 16 15.5 31.5t42 40t45.5 51.5q59 84 65 239.5t6 364.5t-8 391l-104 -4q-78 1 -78 62z" />
<glyph unicode="g" horiz-adv-x="1142" d="M96 508q0 205 137.5 370.5t341.5 165.5q141 0 256 -96q4 96 78 96q94 0 94.5 -140t-40.5 -408q25 -250 24 -373q0 -266 -127 -430t-352 -164q-123 0 -237.5 52t-114.5 104.5t47 52.5q18 0 104 -38t201 -38q164 0 258 122t94 318q0 72 -10 148q-47 -111 -147.5 -190.5 t-208.5 -79.5q-197 0 -306 170q-92 153 -92 358zM248 501q0 -169 64.5 -278.5t175 -109.5t203.5 103t145 263v314q-113 119 -249 118.5t-237.5 -121t-101.5 -289.5z" />
<glyph unicode="h" horiz-adv-x="1181" d="M135 120q0 140 41 408q0 139 -18.5 525.5t-18.5 417t21.5 59.5t45 29t44.5 -11q49 -23 49 -80v-14v-670q150 260 369 260q166 0 255 -117.5t89 -281.5l-11 -321v-88q4 -84 41 -101q14 -4 33 -7t26 -7t7 -17q0 -53 -34 -88.5t-79 -35.5q-76 0 -106.5 59t-30.5 182l8 377 q0 141 -60.5 226t-164.5 85t-201.5 -115.5t-138.5 -265.5l6 -444q0 -104 -78 -104q-94 0 -94 140z" />
<glyph unicode="i" horiz-adv-x="458" d="M137 1366q0 49 30 84t73 35q84 0 84 -99q0 -45 -30 -84.5t-71 -39.5q-86 0 -86 104zM152 82l10 430l-10 430q0 102 77.5 102t77.5 -102l-10 -430l10 -430q0 -102 -77.5 -102t-77.5 102z" />
<glyph unicode="j" horiz-adv-x="456" d="M-14 -348q0 29 88 115q37 35 63.5 108.5t26.5 165.5l-2 430l-10 471q0 102 77.5 102t77.5 -102l-10 -471l-2 -451q0 -176 -89 -291.5t-165 -115.5q-55 0 -55 39zM137 1366q0 49 30 84t73 35q84 0 84 -99q0 -45 -30 -84.5t-71 -39.5q-86 0 -86 104z" />
<glyph unicode="k" horiz-adv-x="1044" d="M135 120q0 140 41 408q0 139 -18.5 525.5t-18.5 417t21.5 59.5t45 29t44.5 -11q49 -23 49 -80v-14v-670q150 260 369 260q117 0 189.5 -68.5t72.5 -170.5q0 -168 -174 -287l-101 -65l152 -234q27 -43 60.5 -65.5t57 -25.5t38 -7t12.5 -17q0 -49 -31 -86.5t-74 -37.5h-32 q-51 0 -127 124q-2 6 -5.5 10.5t-75 120t-112.5 173.5q-53 0 -88 28.5t-35 81.5t60 78q16 6 32 6q47 0 101 -51q78 35 138 106.5t60 128.5q0 123 -127 123q-115 0 -217 -114.5t-141 -266.5l6 -444q0 -104 -78 -104q-94 0 -94 140z" />
<glyph unicode="l" horiz-adv-x="458" d="M152 82l10 686l-10 686q0 102 77.5 102t77.5 -102l-10 -686l10 -686q0 -102 -77.5 -102t-77.5 102z" />
<glyph unicode="m" horiz-adv-x="1796" d="M139 120q0 140 41 408q0 86 -17.5 242t-17.5 188.5t22.5 59t57.5 26.5t57.5 -26.5t22.5 -57t-1 -92t-1 -84.5q137 260 348 260q119 0 196 -69.5t107 -190.5q137 260 349 260q156 0 237 -116q86 -117 86 -283l-10 -321v-88q4 -84 41 -101q14 -4 32.5 -7t25.5 -7t7 -17 q0 -53 -33.5 -88.5t-78.5 -35.5q-76 0 -106.5 59t-30.5 182l8 377q0 141 -55.5 226t-151.5 85t-188.5 -116.5t-129.5 -264.5l7 -444q0 -104 -78 -104q-94 0 -94 140t40 408q0 381 -208 381q-96 0 -188.5 -116.5t-129.5 -264.5l6 -444q0 -104 -78 -104q-94 0 -94 140z" />
<glyph unicode="n" horiz-adv-x="1185" d="M139 120q0 140 41 408q0 86 -17.5 242t-17.5 188.5t22.5 59t57.5 26.5t57.5 -26.5t22.5 -57t-1 -92t-1 -84.5q150 260 369 260q164 0 254 -117.5t90 -281.5l-10 -321v-88q4 -84 41 -101q14 -4 32.5 -7t25.5 -7t7 -17q0 -53 -34 -88.5t-79 -35.5q-76 0 -106.5 59 t-30.5 182l8 377q0 141 -60 226t-164.5 85t-202 -115.5t-138.5 -265.5l6 -444q0 -104 -78 -104q-94 0 -94 140z" />
<glyph unicode="o" d="M94 510q0 227 137.5 386t346 159t344 -157t135.5 -385t-138.5 -386t-346 -158t-343 157t-135.5 384zM240 510q0 -170 94 -289t236.5 -119t241.5 120t99 290t-95 290t-235.5 120t-242.5 -121q-98 -121 -98 -291z" />
<glyph unicode="p" horiz-adv-x="1167" d="M115 -321.5q0 79.5 6 151.5l24 244q23 236 27 276v39l2 78v33q0 86 -18.5 252t-18.5 202.5t22.5 63t57.5 26.5t57.5 -26.5t22.5 -57t-1 -94t-1 -86.5q72 133 157 198.5t216 65.5t225 -86q178 -158 178 -423q0 -223 -135 -389t-346 -166q-154 0 -291 100 q-4 -156 -4 -259.5t-2 -152.5q-4 -84 -19 -106q-18 -33 -62 -33t-70.5 35t-26.5 114.5zM299 231q121 -119 291 -118q131 0 230.5 119.5t99.5 283.5t-71 279.5t-196 115.5q-215 0 -354 -354v-326z" />
<glyph unicode="q" horiz-adv-x="1132" d="M98 489q0 223 129 389t332 166q154 0 266 -104q0 104 78 104q94 0 94 -140t-41 -408q0 -131 18.5 -490.5t18.5 -389.5t-22.5 -59.5t-46 -29.5t-43.5 10q-49 23 -50 78q0 8 3 16v586q-55 -106 -149.5 -171.5t-214.5 -65.5t-208 81q-164 152 -164 428zM244 499 q0 -171 63.5 -278.5t176 -107.5t207.5 100t147 264l-11 316q-121 119 -256 118.5t-231 -121t-96 -291.5z" />
<glyph unicode="r" horiz-adv-x="835" d="M139 120q0 140 41 408q0 86 -17.5 241t-17.5 187.5t22.5 60t57.5 27.5t57.5 -27.5t22.5 -56t-1 -92t-1 -88.5q39 102 127 185q90 80 179 79.5t141.5 -36t52.5 -80.5t-22.5 -69.5t-58.5 -24.5t-79 36q-39 39 -65 39q-68 0 -158 -146.5t-115 -293.5l6 -385q0 -104 -78 -104 q-94 0 -94 140z" />
<glyph unicode="s" horiz-adv-x="931" d="M74 197q0 47 39 63t59 -4q4 -2 82 -80q23 -20 84 -41.5t108 -21.5q115 0 187 47t72 133q0 109 -205 178q-227 78 -291 133q-31 27 -56.5 71t-25.5 93q0 111 101.5 193.5t242.5 82.5t229 -48t88 -107q0 -68 -71 -68q-29 0 -62 23q-98 68 -189 67.5t-138 -41.5 q-55 -39 -55.5 -91t53 -84.5t174.5 -81t147 -60.5q90 -39 147.5 -106.5t57.5 -151.5q0 -137 -113.5 -226t-271.5 -89t-277 71q-116 74 -116 146z" />
<glyph unicode="t" horiz-adv-x="690" d="M41 960.5q0 67.5 102 67.5l90 -4l-4 229q0 102 78 102.5t78 -102.5l-6 -231l166 8q102 0 102 -69q0 -66 -102 -66l-170 4l-4 -485q0 -188 14 -244.5t82 -56.5q33 0 78 21.5t55 21.5q43 0 43 -43t-75.5 -88t-149.5 -45q-178 0 -178 262l-2 657q-68 -6 -95 -6 q-102 0 -102 67.5z" />
<glyph unicode="u" horiz-adv-x="1196" d="M127 972.5q0 22.5 25.5 47t62.5 24.5q94 0 94 -167l-16 -451q0 -141 60.5 -227t165 -86t202.5 116q96 119 137 267l-6 444q0 104 78 104q94 0 94 -140t-41 -408q0 -150 21.5 -249.5t54.5 -111.5q12 -6 29.5 -8t24.5 -6t7 -17q0 -55 -33.5 -89.5t-85.5 -34.5 q-129 0 -129 262q-152 -262 -380 -262q-164 0 -254 120q-90 125 -91 299l13 310q0 63 -16.5 152t-16.5 111.5z" />
<glyph unicode="v" horiz-adv-x="993" d="M47 972q0 34 20.5 53t51.5 19q55 0 84 -71q18 -47 59 -180l121 -344q63 -180 83.5 -231.5t29.5 -53.5q16 0 51 90l106 293q25 66 74 221.5t68 202.5q29 74 79 73q31 0 52.5 -19t21.5 -47t-11 -58.5t-20.5 -52t-23.5 -59.5t-34.5 -89t-114 -311.5t-136.5 -344 t-113.5 -83.5t-107.5 73q-12 23 -106 271l-123 321q-74 188 -92.5 240.5t-18.5 86.5z" />
<glyph unicode="w" horiz-adv-x="1609" d="M51 966q0 38 21.5 58t52.5 20q59 0 82 -71q2 -2 53 -180l66 -218q8 -23 22 -65q49 -162 80 -254t41 -92q20 0 133 386t127 421q29 74 91.5 73.5t86.5 -71.5l119 -424q115 -385 131 -385q23 0 135 383q27 88 68 239l49 179q25 80 76 79q31 0 52.5 -18t21.5 -49t-37 -145.5 t-52.5 -157.5t-94.5 -289t-110.5 -325.5t-113.5 -79.5t-119 106q-74 213 -141.5 449.5t-82.5 236.5t-40 -82l-53 -188q-106 -375 -148 -451q-35 -72 -112.5 -71.5t-116.5 112.5q-4 12 -12.5 35t-21.5 63l-26 82q-13 41 -71 213l-55 162q-18 55 -41 119q-60 162 -60 200z" />
<glyph unicode="x" horiz-adv-x="1007" d="M57 934q0 80 64 113q18 10 39 10q45 0 92 -51.5t123 -169.5l129 -195l235 354q39 49 74 49q10 0 18 -4q43 -18 43 -55t-19 -68.5t-120 -168.5l-155 -211l208 -314q80 -109 179 -121q8 -2 6 -8q0 -49 -30 -87t-73 -38t-81.5 39t-75.5 92.5t-64 89.5l-153 232 q-135 -197 -202 -297t-86.5 -124t-44 -24t-47 21.5t-22.5 44.5t6 40t86 126q86 111 234 326l-176 262q-86 111 -136.5 114t-50.5 23z" />
<glyph unicode="y" horiz-adv-x="1163" d="M127 972.5q0 22.5 25.5 47t62.5 24.5q94 0 94 -167l-16 -451q0 -141 60.5 -227t165 -86t202.5 116q96 119 137 267l-6 444q0 104 78 104q94 0 94 -153q0 -121 -43 -395q25 -250 25 -373q0 -268 -132.5 -431t-367.5 -163q-123 0 -237.5 52t-114.5 104.5t47 52.5 q20 0 112.5 -38t192.5 -38q170 0 271.5 122t101.5 318q0 72 -7 140q-152 -262 -380 -262q-164 0 -254 120q-90 125 -91 299l13 310q0 63 -16.5 152t-16.5 111.5z" />
<glyph unicode="z" horiz-adv-x="978" d="M72 61q0 51 71 136q109 123 219 274l220 293q68 96 86 131q-154 6 -174 6l-299 -10q-102 0 -102.5 71.5t102.5 71.5l299 -10l290 10q98 0 99 -71q0 -55 -104.5 -177t-259 -331t-234.5 -328q164 -4 217 -4l307 10q102 0 102 -71.5t-102 -71.5l-307 10q-111 -4 -332 -10 q-98 -1 -98 71z" />
<glyph unicode="{" horiz-adv-x="628" d="M29 524q-4 51 32.5 84t79.5 33t72 -12q23 29 44.5 117t21.5 169.5t-15.5 218t-15.5 197.5q0 102 64.5 163.5t156.5 61.5q49 0 68 -36q8 -16 8 -36t-13 -38q-18 -39 -63 -39q-78 0 -78 -96q0 -39 15.5 -168t15.5 -225q0 -236 -100 -367q41 -57 53 -79.5t28.5 -106.5 t16.5 -190.5t-15.5 -235.5t-15.5 -168q0 -92 78 -93q45 0 65 -38q8 -18 8.5 -37t-8.5 -37q-18 -37 -65 -37q-92 0 -156.5 59.5t-64.5 161.5q0 61 15 197.5t15 220.5t-16 171t-47 101q-35 -18 -66 -18q-118 0 -118 102z" />
<glyph unicode="|" horiz-adv-x="450" d="M154 -451q0 74 5 264.5t5 708.5l-8 1014q0 102 69.5 102t69.5 -102l-8 -1014q0 -561 4 -719q6 -238 6 -254q0 -102 -71.5 -102t-71.5 102z" />
<glyph unicode="}" horiz-adv-x="628" d="M84 1483.5q0 19.5 10 36.5q16 37 66 36q92 0 156.5 -61t64.5 -164q0 -43 -15.5 -180t-15.5 -227t21.5 -178.5t44.5 -116.5q25 12 72 12t79.5 -33t32.5 -84q0 -74 -63 -94q-25 -8 -55.5 -8t-65.5 18q-33 -14 -48.5 -96t-15.5 -179t15.5 -234.5t15.5 -180.5 q0 -102 -64.5 -161.5t-156.5 -59.5q-47 0 -66 37q-8 18 -8 36.5t10 37.5q18 39 64 38q78 0 78 93q0 23 -15.5 151.5t-15.5 249.5q0 219 47 303q10 18 51 76q-100 131 -100 367q0 113 15.5 241.5t15.5 151.5q0 96 -78 96q-45 0 -66 39q-10 18 -10 37.5z" />
<glyph unicode="~" horiz-adv-x="1130" d="M121 487q0 68 88 125q90 61 190.5 61.5t215 -60t161.5 -60.5t72.5 18.5t48.5 38.5q49 45 68 45q47 0 47 -53t-74 -114.5t-152.5 -61.5t-188.5 59.5t-170 59.5t-120 -60q-68 -66 -110.5 -65.5t-59 20.5t-16.5 47z" />
<glyph unicode="&#xa1;" horiz-adv-x="450" d="M131 989q0 49 29.5 88t70.5 39t64.5 -31.5t23.5 -80t-30.5 -86t-71.5 -37.5t-63.5 29.5t-22.5 78.5zM143 -369q0 14 7.5 185.5t7.5 310.5l-6 434q0 102 73.5 102.5t73.5 -102.5l-6 -434q0 -119 7 -291t7 -205q0 -102 -82 -102t-82 102z" />
<glyph unicode="&#xa2;" horiz-adv-x="1093" d="M117 510q0 199 110 348q113 150 303 186q-2 57 -2 181q0 96 70 96t70 -104l-4 -164q125 -6 213 -64q92 -55 92 -112q0 -31 -20.5 -53.5t-46 -22.5t-97.5 53q-70 57 -143 66q-2 -72 -2.5 -291t4.5 -527q90 6 172 57.5t100 51.5q51 0 51 -51t-100 -115q-100 -61 -221 -74 l4 -143q0 -104 -72 -104t-72 102t2 151q-186 35 -298.5 184.5t-112.5 348.5zM270 518q0 -139 72 -252q74 -106 190 -147q4 299 4.5 414.5t-1.5 199.5v174q-109 -33 -187 -141.5t-78 -247.5z" />
<glyph unicode="&#xa3;" horiz-adv-x="1097" d="M121 734.5q0 19.5 21.5 36.5t42 21.5t57.5 1.5t41 -3l-25 110q-35 156 -35 223q0 143 103 242q104 98 290 98q113 0 215.5 -57t104.5 -119q-6 -25 -11 -35t-24 -24q-33 -27 -125 36.5t-186 63.5t-156.5 -52t-62.5 -146.5t51 -344.5l326 7h10q43 0 58 -25t15 -43t-15 -43 t-58 -25h-10l-308 7q2 -45 2 -127q0 -137 -65 -281q-27 -57 -64 -123q45 -2 181.5 -2t273.5 8l137 6q33 0 59.5 -21.5t26.5 -55.5q0 -78 -102 -78l-309 10l-332 -10q-76 0 -96 55q-8 16 -8.5 50t44.5 106.5t79 147.5t38 134.5t4 98.5t-6 77l-96 -2q-55 0 -78 43 q-8 15 -8 34.5z" />
<glyph unicode="&#xa4;" horiz-adv-x="1312" d="M125 166q0 31 43 70l125 120q-59 106 -59.5 239.5t61.5 244.5q-123 119 -127 125q-41 43 -41 73.5t24.5 55t55.5 24.5t69 -45l113 -117q113 98 265.5 98.5t271.5 -96.5l108 115q45 39 76 39t51 -22q25 -16 25 -52.5t-43 -72.5q-80 -80 -123 -119q63 -111 63 -247 t-63 -247l123 -116q45 -39 45 -70t-24.5 -55.5t-53.5 -24.5t-59.5 26.5t-122.5 125.5q-113 -98 -271.5 -98.5t-271.5 100.5l-109 -113q-45 -39 -75.5 -39t-53.5 21q-22 26 -22 57zM375 596q0 -133 80 -229q82 -92 200.5 -92.5t203.5 96t85 231.5t-82 225q-80 94 -198.5 94.5 t-203.5 -96t-85 -229.5z" />
<glyph unicode="&#xa5;" horiz-adv-x="1198" d="M109 1394.5q0 30.5 25.5 52t52 21.5t49.5 -30q41 -41 77 -123l140 -283q88 -176 147 -268q55 84 191.5 359.5t158 308t56 32.5t56 -19.5t21.5 -36.5t-1 -26.5t-5 -20.5t-17 -36t-30 -51q-49 -84 -123 -211l-182 -322q166 6 221 7q104 0 105 -66q0 -31 -23.5 -48.5 t-93.5 -17.5t-266 7v-162l299 6q37 0 60.5 -17.5t23.5 -48t-23.5 -48t-90.5 -17.5t-269 6l6 -260q0 -102 -80 -102t-80 102l8 260q-190 -6 -254 -6q-113 0 -112 61q0 14 8 29q23 41 78 41l280 -6v162q-190 -6 -254 -7q-111 0 -110 60q0 14 8 33q20 39 55 39h47q41 0 195 -7 l-168 297l-119 201q-35 70 -45 80q-22 45 -22 75.5z" />
<glyph unicode="&#xa6;" horiz-adv-x="475" d="M166 -377l10 303l-8 310q0 88 68 88q72 0 71 -88l-8 -310l10 -303q0 -94 -73 -94q-70 0 -70 94zM166 788l10 304q-2 102 -8 309q0 88 68 88q72 0 71 -88l-8 -309l10 -304q0 -94 -73 -94q-70 0 -70 94z" />
<glyph unicode="&#xa7;" horiz-adv-x="1097" d="M111 -279q0 43 36 58q12 4 32 4t48 -21l54 -43q70 -66 194.5 -65.5t202.5 71t78 179.5q0 70 -40 116t-60.5 68.5t-71.5 58.5l-72 50q-86 61 -160 102q-219 150 -219 324q0 104 76 188t203 113q-205 162 -205 307t107.5 240.5t252 95.5t243.5 -46t99 -112q0 -41 -32 -53 q-10 -4 -30 -4t-52 20q-98 61 -199.5 61.5t-161.5 -55.5q-63 -51 -63 -131q0 -133 219 -278q199 -123 254 -174.5t84 -92.5q66 -86 65 -186q0 -49 -14 -102q-49 -160 -195 -234q135 -127 135.5 -280.5t-124.5 -267t-312 -113.5q-135 0 -253.5 67t-118.5 135zM285 620.5 q0 -75.5 84 -147.5q59 -51 146 -107.5t151 -99.5q80 29 128 98.5t48 160.5t-109 180q-115 96 -221 96t-166.5 -52.5t-60.5 -128z" />
<glyph unicode="&#xa8;" horiz-adv-x="800" d="M143 1366q0 49 30 84t73 35q84 0 84 -99q0 -45 -30 -84.5t-71 -39.5q-86 0 -86 104zM471 1366q0 49 29.5 84t72.5 35q84 0 84 -99q0 -45 -29.5 -84.5t-70.5 -39.5q-86 0 -86 104z" />
<glyph unicode="&#xa9;" horiz-adv-x="1548" d="M131 905.5q0 268.5 188.5 459.5t454.5 191t454.5 -191t188.5 -459.5t-188.5 -460t-454.5 -191.5t-454.5 191.5t-188.5 460zM254 906q0 -224 152 -386q152 -158 366.5 -158t367 159t152.5 384t-152.5 384t-368.5 159t-366.5 -159t-150.5 -383zM418 905q0 164 102.5 279.5 t263.5 115.5q84 0 157 -34.5t73 -77.5q0 -57 -56 -58q-14 0 -66 29t-97 29q-115 0 -183.5 -83t-68.5 -201t71 -202q74 -82 181 -81q57 0 117.5 25.5t74.5 25.5q45 0 45 -47q0 -33 -71.5 -75t-176.5 -42q-154 0 -262 117q-104 116 -104 280z" />
<glyph unicode="&#xaa;" horiz-adv-x="839" d="M96 1122q0 129 83 230.5t206 101.5q90 0 156 -65q10 66 67 65q68 0 68 -117q0 -18 -25 -219q0 -45 12.5 -119.5t49.5 -85.5l14 -4q14 -2 14 -10q0 -43 -25.5 -69.5t-68.5 -26.5q-80 0 -96 164q-27 -70 -88.5 -117t-130.5 -47q-109 0 -172.5 95t-63.5 224zM214 1109 q1 -81 36 -139.5t93 -58.5t115.5 63.5t86.5 151.5l-6 150q-61 66 -142 65q-96 0 -151 -96q-33 -55 -32 -136z" />
<glyph unicode="&#xab;" horiz-adv-x="1038" d="M90 709.5q0 33.5 16.5 56t69.5 70.5l76 71q14 12 50 52t60.5 64t47 24t32.5 -7q41 -16 41 -53t-17 -54.5t-66.5 -54t-59.5 -47.5q-98 -90 -98 -116.5t98 -116.5q10 -10 59.5 -47t66.5 -54.5t17 -45t-18 -48.5q-20 -20 -42 -20t-44 12l-33 25q-66 74 -92.5 100.5 t-118.5 110.5q-45 45 -45 78.5zM518 709.5q0 33.5 16.5 56t69.5 70.5l76 71q16 16 52 55t59.5 60.5t46.5 21.5q74 0 73 -67q0 -27 -17 -44.5t-66.5 -54t-59.5 -47.5q-98 -90 -98 -116.5t98 -116.5q10 -10 59.5 -47t66.5 -54.5t17 -45t-18 -48.5q-20 -20 -42 -20t-44 12 l-33 25q-66 74 -92.5 100.5t-118.5 110.5q-45 45 -45 78.5z" />
<glyph unicode="&#xac;" horiz-adv-x="1298" d="M160 534.5q0 16.5 10 34.5q20 33 74 33l403 -6l404 6q88 0 88 -88l-4 -123l4 -123q0 -51 -37 -71q-16 -12 -35 -13l-35 13q-37 20 -37 71l6 123v78q-213 4 -354 4l-403 -6q-51 0 -72 33q-12 18 -12 34.5z" />
<glyph unicode="&#xad;" horiz-adv-x="876" d="M135 534.5q0 18.5 15.5 43t58.5 24.5h10l219 -6l219 6h11q43 0 58 -24.5t15 -43t-15 -43t-58 -24.5h-11l-219 6l-219 -6h-10q-43 0 -58.5 24.5t-15.5 43z" />
<glyph unicode="&#xae;" horiz-adv-x="1548" d="M131 905.5q0 268.5 188.5 459.5t454.5 191t454.5 -191t188.5 -459.5t-188.5 -460t-454.5 -191.5t-454.5 191.5t-188.5 460zM254 906q0 -224 152 -386q152 -158 366.5 -158t367 159t152.5 384t-152.5 384t-368.5 159t-366.5 -159t-150.5 -383zM494 1221q0 96 251 96 q141 0 221.5 -70.5t80.5 -169.5q0 -147 -166 -225q25 -39 47 -81t49 -75q33 -51 86 -51q14 0 14 -10q0 -63 -53 -86q-18 -8 -43 -8q-47 0 -102 88l-54 94q-20 39 -59 102q-37 -6 -74 -6t-76 6q6 -147 7 -194q0 -92 -66 -92q-61 0 -61 77l8 324zM610 948q39 18 89.5 18.5 t111.5 -22.5q41 0 78 40t37 91t-41 91t-125 40t-144 -18l-4 -109q-2 -55 -2 -131z" />
<glyph unicode="&#xaf;" horiz-adv-x="892" d="M102 1372.5q0 18.5 15.5 43t58.5 24.5h10l260 -6l261 6h10q43 0 58.5 -24.5t15.5 -43t-15.5 -43t-58.5 -24.5h-10l-261 6l-260 -6h-10q-43 0 -58.5 24.5t-15.5 43z" />
<glyph unicode="&#xb0;" horiz-adv-x="684" d="M100 1165q0 125 66 213q68 86 176.5 86t175 -86t66.5 -213t-66.5 -213t-175.5 -86t-176 86q-66 88 -66 213zM223 1165q0 -80 32 -133t88 -53t87 51t31 133t-31 135.5t-87 53.5t-88 -53.5t-32 -133.5z" />
<glyph unicode="&#xb1;" horiz-adv-x="1167" d="M135 658.5q0 19.5 8 33.5q23 43 78 43l303 -6q-8 197 -8 232q0 84 68 83q33 0 52 -21.5t19 -59t-8 -234.5l299 6h10q43 0 58.5 -24.5t15.5 -43t-15.5 -43t-58.5 -24.5h-58q-54 0 -251 6l8 -260q0 -39 -19.5 -61.5t-51.5 -22.5q-68 0 -68 84q0 33 8 260q-209 -6 -274.5 -6 t-90 19.5t-24.5 39zM137 61.5q0 18.5 15.5 43t58.5 24.5h10l363 -6l362 6h10q43 0 58.5 -24.5t15.5 -43t-15.5 -43t-58.5 -24.5h-10l-362 6l-363 -6h-10q-43 0 -58.5 24.5t-15.5 43z" />
<glyph unicode="&#xb2;" horiz-adv-x="765" d="M100 768q0 43 60 113q322 358 321 462q4 43 -27.5 73t-80.5 30q-59 0 -105.5 -44t-79 -48t-47 15.5t-14.5 43.5q0 45 71.5 99.5t178 54.5t172 -61.5t65.5 -135.5t-47 -162q-18 -45 -43 -73q-61 -74 -96 -127l-84 -103q-41 -49 -78 -100h105l211 10q86 0 86 -65.5 t-86 -65.5l-209 8q-63 -2 -191 -8q-33 0 -57.5 20.5t-24.5 63.5z" />
<glyph unicode="&#xb3;" horiz-adv-x="757" d="M98 859q0 52 49 52q25 0 52 -26q82 -78 167 -78t123 47q45 45 45.5 121t-52 127t-128.5 55q-63 -68 -112 -67q-74 0 -74 69q0 31 31.5 57.5t91.5 38.5q119 127 170 187q-92 6 -121 6l-145 -6q-80 0 -80 59q0 29 21.5 47.5t58.5 18.5l165 -4l150 4q111 0 111 -76 q0 -23 -16.5 -44.5t-82 -90t-98.5 -109.5q113 -25 176.5 -99.5t63.5 -181t-82 -194.5t-222 -88q-98 0 -180 61.5t-82 113.5z" />
<glyph unicode="&#xb4;" horiz-adv-x="583" d="M143 1257q0 27 22.5 50.5t57.5 66.5q16 25 39 77t46.5 78.5t58 26.5t54 -22.5t19.5 -54.5q0 -88 -94 -177.5t-148.5 -89.5t-54.5 45z" />
<glyph unicode="&#xb5;" horiz-adv-x="1251" d="M170 889q0 154 94 153q82 0 82 -124q0 -41 -5 -128.5t-5 -402.5q0 -123 61.5 -197.5t164 -74.5t199.5 115.5t138 265.5l-6 444q0 104 78 104q94 0 94 -140t-41 -408q0 -150 21.5 -249.5t54.5 -111.5q12 -6 29.5 -8t24.5 -6t7 -17q0 -55 -33.5 -89.5t-85.5 -34.5 q-129 0 -129 262q-59 -100 -151 -181q-88 -82 -207 -81.5t-221 102.5l14 -449v-14q0 -53 -28.5 -71.5t-51.5 -18.5l-43 12q-37 25 -37 78v14l13 715q-31 422 -31 541z" />
<glyph unicode="&#xb6;" horiz-adv-x="1286" d="M90 1092q0 215 134 337.5t370 126.5l207 -6l178 6q45 0 71.5 -28.5t26.5 -75.5l-10 -909q0 -369 6 -627t6 -294t-21.5 -64.5t-58 -28.5t-58 27.5t-21.5 86t6 316.5t6 584l-10 880q-61 4 -121 4l-121 -4q-10 -639 -10 -900t6 -561t6 -329q0 -104 -80 -104t-80 104 q0 68 6.5 326t6.5 584v129q-197 10 -321 128t-124 292z" />
<glyph unicode="&#xb7;" horiz-adv-x="454" d="M131 518q0 49 29.5 88t72.5 39t67 -30.5t24 -81t-31 -89t-72 -38.5t-65.5 31.5t-24.5 80.5z" />
<glyph unicode="&#xb8;" horiz-adv-x="677" d="M88 -328q0 14 10.5 26.5t27.5 12.5t71.5 -26.5t98.5 -26.5t78 20.5t34 43t-33 49.5q-2 0 -60.5 35.5t-82 66.5t-23.5 74v78h131v-45q0 -61 107.5 -120t107.5 -139.5t-71.5 -136t-169 -55.5t-162 45t-64.5 98z" />
<glyph unicode="&#xb9;" horiz-adv-x="608" d="M53 1206q0 35 68 103q68 63 131 140t86.5 97.5t56.5 20.5q74 0 74 -105l-6 -336l6 -352q0 -51 -35 -72q-16 -10 -32.5 -10t-32.5 10q-33 20 -33 72q2 117 6 352v246l-63 -72l-48 -59q-74 -96 -114 -96q-64 0 -64 61z" />
<glyph unicode="&#xba;" horiz-adv-x="733" d="M98 1132.5q0 143.5 76 237.5t192.5 94t192.5 -94t76 -237.5t-75 -235.5t-193.5 -92t-193.5 92t-75 235.5zM221 1131.5q0 -99.5 39 -156.5t106.5 -57t106.5 58t39 156.5t-39 159t-106.5 60.5t-106.5 -60.5t-39 -160z" />
<glyph unicode="&#xbb;" horiz-adv-x="1036" d="M127 443.5q0 35.5 16.5 53t65.5 54.5t61 47q98 90 98.5 116.5t-98.5 116.5q-12 10 -61 47t-65.5 54.5t-16.5 45.5t19.5 48.5t41 20.5t41.5 -15q20 -8 27.5 -17t59 -63.5t98.5 -97.5t59 -55q47 -43 47 -78t-16.5 -57.5t-69.5 -71.5l-76 -70q-14 -14 -50 -53t-60.5 -61.5 t-47 -22.5t-32.5 4q-41 19 -41 54.5zM555 451q0 29 16.5 46t65.5 54t61 47q98 90 98.5 116.5t-98.5 116.5q-12 10 -61 47t-65.5 54.5t-16.5 45.5t19.5 48.5t41 20.5t41.5 -15q20 -8 27.5 -17t59 -63.5t98.5 -97.5t59 -55q47 -43 47 -78t-16.5 -57.5t-69.5 -71.5l-76 -70 q-16 -16 -52 -55t-60.5 -60.5t-46.5 -21.5q-72 0 -72 66z" />
<glyph unicode="&#xbc;" horiz-adv-x="1728" d="M84 1206q0 35 68 103q68 63 131 140t86.5 97.5t56.5 20.5q74 0 74 -105l-6 -336l6 -352q0 -51 -33 -72q-16 -10 -32.5 -10t-33.5 10q-35 20 -34 72q2 117 6 352v246l-64 -72l-47 -59q-74 -96 -115 -96q-63 0 -63 61zM492 39q0 37 30 121l105 260q74 184 150.5 405.5 t90.5 268.5l136 389q29 86 92 86q29 -6 44 -16.5t15 -55.5t-31 -117l-104 -260q-100 -240 -192.5 -516t-168.5 -506q-29 -84 -51 -105.5t-43 -21.5q-73 0 -73 68zM975 330q0 31 41 90t135 182l154 199q66 84 110.5 84t69 -33t24.5 -84l-6 -395l78 4q18 0 35.5 -17.5 t17.5 -45t-30.5 -40t-55 -12.5t-45.5 4l6 -198q0 -88 -62.5 -88t-62.5 88l7 202l-80 2l-269 -6q-67 1 -67 64zM1120 373h269q2 53 2 196l-2 160q-42 -45 -269 -356z" />
<glyph unicode="&#xbd;" horiz-adv-x="1748" d="M84 1206q0 35 68 103q68 63 131 140t86.5 97.5t56.5 20.5q74 0 74 -105l-6 -336l6 -352q0 -51 -33 -72q-16 -10 -32.5 -10t-33.5 10q-35 20 -34 72q2 117 6 352v246l-64 -72l-47 -59q-74 -96 -115 -96q-63 0 -63 61zM492 39q0 37 30 121l105 260q74 184 150.5 405.5 t90.5 268.5l136 389q29 86 92 86q29 -6 44 -16.5t15 -55.5t-31 -117l-104 -260q-100 -240 -192.5 -516t-168.5 -506q-29 -84 -51 -105.5t-43 -21.5q-73 0 -73 68zM1077 66q0 59 60 122q322 360 321 465q4 43 -27.5 73t-80.5 30q-59 0 -105.5 -44t-79 -48.5t-47 15 t-14.5 44.5q0 45 70.5 99.5t178 54.5t173 -61.5t65.5 -135.5t-47 -162q-18 -45 -43 -74q-61 -74 -96 -127l-84 -102q-41 -49 -78 -100h105l211 10q86 0 86 -65.5t-86 -65.5l-209 8l-191 -8q-33 0 -57.5 20.5t-24.5 51.5z" />
<glyph unicode="&#xbe;" horiz-adv-x="1830" d="M111 859q0 52 49 52q25 0 51 -26q82 -78 167 -78t124 47q45 45 45 121t-52.5 127t-127.5 55q-63 -68 -113 -67q-74 0 -74 69q0 31 32 57.5t91 38.5q119 127 170 187q-92 6 -121 6l-145 -6q-80 0 -80 59q0 29 21.5 47.5t58.5 18.5l166 -4l149 4q111 0 111 -76 q0 -23 -16.5 -44.5t-82 -90t-98.5 -109.5q113 -25 176.5 -99.5t63.5 -181t-82 -194.5t-221 -88q-98 0 -180 61.5t-82 113.5zM598 39q0 37 31 121l104 260q74 184 151 405.5t91 268.5l135 389q29 86 92 86q29 -6 44.5 -16.5t15.5 -55.5t-31 -117l-105 -260 q-100 -240 -192 -516t-168 -506q-29 -84 -51.5 -105.5t-42.5 -21.5q-74 0 -74 68zM1081 330q0 31 41 90t135 182l154 199q66 84 111 84t69.5 -33t24.5 -84l-6 -395l78 4q18 0 35.5 -17.5t17.5 -45t-31 -40t-55.5 -12.5t-44.5 4l6 -198q0 -88 -62.5 -88t-62.5 88l6 202l-80 2 l-268 -6q-68 1 -68 64zM1227 373h268q2 53 2 196l-2 160q-41 -45 -268 -356z" />
<glyph unicode="&#xbf;" horiz-adv-x="907" d="M96 -100.5q0 159.5 127 293.5q35 39 107 110q127 127 127 247t71 120q76 0 76 -115q0 -154 -127 -293q-35 -39 -106 -110q-127 -133 -127 -244t69.5 -179.5t145.5 -68.5q135 0 195.5 78t93 78t51 -18.5t18.5 -47.5q0 -72 -106 -145q-102 -76 -234 -76 q-170 0 -275.5 105.5t-105.5 265zM436 989q0 49 30 88t71 39t64.5 -31.5t23.5 -80t-31 -86t-72 -37.5t-63.5 29.5t-22.5 78.5z" />
<glyph unicode="&#xc0;" horiz-adv-x="1314" d="M80 49q0 45 56.5 211t78.5 240h-37q-98 0 -98 75.5t98 75.5q59 0 84 -2l268 785q43 123 119 122q51 0 79 -29.5t48.5 -80.5t104.5 -308t163 -487l91 2q45 0 73.5 -22.5t28.5 -57.5q0 -78 -143 -77l47 -148q20 -59 58 -163.5t38 -133t-19.5 -50t-50.5 -21.5q-59 0 -90 71 q-31 84 -69.5 214t-73.5 239q-246 6 -342 6t-230 -6q-125 -426 -135 -449q-27 -76 -80 -75q-31 0 -49 19t-18 50zM408 645q125 -6 245.5 -6t235.5 6q-211 678 -236.5 678t-189.5 -508zM467 1921q0 39 45 57q16 8 41 9q47 0 94 -111q31 -66 75 -115t44 -73q0 -43 -55.5 -43 t-149.5 88q-92 90 -92 176q-2 6 -2 12z" />
<glyph unicode="&#xc1;" horiz-adv-x="1673" d="M66 190q0 141 143 284.5t373 197.5q90 250 168.5 493.5t89.5 268.5q43 123 118 122q84 0 125 -106q10 -29 58 -170l202 -614q84 -25 137.5 -64t53.5 -67q0 -47 -51 -48q-18 0 -99 29q88 -285 115 -325.5t43.5 -49t36.5 -12.5q43 -8 43 -23q0 -61 -33 -99t-82 -38 q-90 0 -137 133q-92 274 -147 455q-156 27 -284 27t-234 -21q-133 -334 -197 -434q-102 -160 -238 -160q-94 0 -149 63.5t-55 157.5zM199 195q0 -43 21.5 -67t55.5 -24q113 0 269 426q-143 -47 -244.5 -147t-101.5 -188zM739 700q90 14 200 14.5t243 -22.5 q-195 631 -220.5 631t-173.5 -467zM864 1687q0 27 22.5 50.5t57.5 66.5q16 25 39 77t46.5 78.5t58 26.5t54 -22.5t19.5 -54.5q0 -88 -94 -177.5t-148.5 -89.5t-54.5 45z" />
<glyph unicode="&#xc2;" horiz-adv-x="1673" d="M66 190q0 141 143 284.5t373 197.5q90 250 168.5 493.5t89.5 268.5q43 123 118 122q84 0 125 -106q10 -29 58 -170l202 -614q84 -25 137.5 -64t53.5 -67q0 -47 -51 -48q-18 0 -99 29q88 -285 115 -325.5t43.5 -49t36.5 -12.5q43 -8 43 -23q0 -61 -33 -99t-82 -38 q-90 0 -137 133q-92 274 -147 455q-156 27 -284 27t-234 -21q-133 -334 -197 -434q-102 -160 -238 -160q-94 0 -149 63.5t-55 157.5zM199 195q0 -43 21.5 -67t55.5 -24q113 0 269 426q-143 -47 -244.5 -147t-101.5 -188zM659 1728.5q0 24.5 18.5 43t45.5 40.5q76 63 115 121 q37 47 59 66q25 18 61.5 18t60 -17.5t63.5 -67.5t60.5 -70.5t49.5 -42.5q49 -41 57 -62q8 -10 8 -24.5t-6 -32.5q-14 -35 -57 -35h-14q-10 0 -33 18.5t-46.5 50t-27.5 33.5q-84 98 -113.5 98.5t-113.5 -98.5q-6 -4 -42 -53t-70 -49t-54 16q-21 23 -21 47.5zM739 700 q90 14 200 14.5t243 -22.5q-195 631 -220.5 631t-173.5 -467z" />
<glyph unicode="&#xc3;" horiz-adv-x="1673" d="M66 190q0 141 143 284.5t373 197.5q90 250 168.5 493.5t89.5 268.5q43 123 118 122q84 0 125 -106q10 -29 58 -170l202 -614q84 -25 137.5 -64t53.5 -67q0 -47 -51 -48q-18 0 -99 29q88 -285 115 -325.5t43.5 -49t36.5 -12.5q43 -8 43 -23q0 -61 -33 -99t-82 -38 q-90 0 -137 133q-92 274 -147 455q-156 27 -284 27t-234 -21q-133 -334 -197 -434q-102 -160 -238 -160q-94 0 -149 63.5t-55 157.5zM199 195q0 -43 21.5 -67t55.5 -24q113 0 269 426q-143 -47 -244.5 -147t-101.5 -188zM610 1747q0 59 65.5 113.5t151.5 54.5t190.5 -57.5 t149.5 -57.5t79 52.5t52.5 52.5t30.5 -17.5t12 -40.5q0 -70 -52 -122t-122.5 -52t-168 56.5t-132.5 56.5t-61.5 -18.5t-33.5 -27.5t-36 -48q-27 -31 -47 -31t-35 6q-43 21 -43 80zM739 700q90 14 200 14.5t243 -22.5q-195 631 -220.5 631t-173.5 -467z" />
<glyph unicode="&#xc4;" horiz-adv-x="1673" d="M66 190q0 141 143 284.5t373 197.5q90 250 168.5 493.5t89.5 268.5q43 123 118 122q84 0 125 -106q10 -29 58 -170l202 -614q84 -25 137.5 -64t53.5 -67q0 -47 -51 -48q-18 0 -99 29q88 -285 115 -325.5t43.5 -49t36.5 -12.5q43 -8 43 -23q0 -61 -33 -99t-82 -38 q-90 0 -137 133q-92 274 -147 455q-156 27 -284 27t-234 -21q-133 -334 -197 -434q-102 -160 -238 -160q-94 0 -149 63.5t-55 157.5zM199 195q0 -43 21.5 -67t55.5 -24q113 0 269 426q-143 -47 -244.5 -147t-101.5 -188zM739 700q90 14 200 14.5t243 -22.5 q-195 631 -220.5 631t-173.5 -467zM702 1835q0 49 30 84t73 35q84 0 84 -99q0 -45 -30 -84.5t-71 -39.5q-86 0 -86 104zM1030 1835q0 49 29.5 84t72.5 35q84 0 84 -99q0 -45 -29.5 -84.5t-70.5 -39.5q-86 0 -86 104z" />
<glyph unicode="&#xc5;" horiz-adv-x="1673" d="M66 190q0 141 143 284.5t373 197.5q90 250 168.5 493.5t89.5 268.5q43 123 118 122q84 0 125 -106q10 -29 58 -170l202 -614q84 -25 137.5 -64t53.5 -67q0 -47 -51 -48q-18 0 -99 29q88 -285 115 -325.5t43.5 -49t36.5 -12.5q43 -8 43 -23q0 -61 -33 -99t-82 -38 q-90 0 -137 133q-92 274 -147 455q-156 27 -284 27t-234 -21q-133 -334 -197 -434q-102 -160 -238 -160q-94 0 -149 63.5t-55 157.5zM199 195q0 -43 21.5 -67t55.5 -24q113 0 269 426q-143 -47 -244.5 -147t-101.5 -188zM739 700q90 14 200 14.5t243 -22.5 q-195 631 -220.5 631t-173.5 -467zM770 1824q0 83 53.5 139t133 56t133 -56t53.5 -138t-51.5 -137.5t-134.5 -55.5t-136 54q-51 55 -51 138zM866 1826q0 -38 27 -67.5t63.5 -29.5t63.5 29.5t27 67.5t-28 67.5t-62.5 29.5t-62.5 -29.5t-28 -67.5z" />
<glyph unicode="&#xc6;" horiz-adv-x="2037" d="M51 137q0 141 142.5 285.5t373.5 195.5q23 59 277 805q43 123 121 123l434 -10l287 10q102 0 102 -77.5t-102 -77.5l-287 10q-217 0 -287 -8q41 -258 82 -492q90 -4 149 -4l349 10q47 0 74.5 -21.5t27.5 -58.5q0 -76 -102 -75l-349 10q-49 0 -122 -4q104 -563 118 -615 q131 -8 263 -8l311 10q102 0 102 -77.5t-102 -77.5l-311 10l-306 -10q-98 0 -112 88q-27 152 -70 434q-111 18 -218.5 18t-205.5 -20q-131 -332 -196 -434q-102 -160 -238 -160q-98 0 -151.5 65.5t-53.5 155.5zM184 141q0 -43 21.5 -66.5t56.5 -23.5q113 0 268 426 q-143 -47 -244.5 -147.5t-101.5 -188.5zM725 647l199 12q88 0 176 -18q-78 492 -131 682q-25 0 -191 -508q-53 -164 -53 -168z" />
<glyph unicode="&#xc7;" horiz-adv-x="1425" d="M117 771q0 335 190.5 565.5t476.5 230.5q227 0 373 -127t146 -297q0 -133 -84 -220t-199 -87t-193 73q-78 78 -77.5 167t39 148.5t94.5 59.5q31 0 51 -17.5t20 -43t-28.5 -65.5t-28.5 -84t35 -73.5t91 -29.5t94 44t38 118q0 109 -98 198q-94 92 -273 92 q-219 0 -360 -193.5t-141 -455.5t147.5 -461.5t372.5 -199.5q100 0 187 26.5t132 63.5q109 90 132.5 90t40 -15.5t16.5 -37.5q0 -80 -152.5 -175.5t-365.5 -95.5q10 -57 112.5 -112.5t102.5 -136t-72 -136t-169 -55.5t-161.5 45t-64.5 98q0 14 10 26.5t27.5 12.5t72 -26.5 t98.5 -26.5t77.5 20.5t33.5 43t-31.5 46t-68.5 46.5q-98 49 -98 153v17q-207 43 -351 217q-194 235 -194 570z" />
<glyph unicode="&#xc8;" horiz-adv-x="1292" d="M109 463q0 274 239 432q-113 115 -112.5 289t137.5 278q139 104 313 104.5t305 -64t131 -142.5q0 -49 -41 -66q-12 -2 -35.5 -2t-70.5 31q-133 100 -267.5 100t-222.5 -63q-98 -61 -98 -189.5t90 -201.5q150 72 279 71.5t182 -51.5q61 -45 61 -112q0 -53 -34 -95 q-76 -82 -236 -82q-66 0 -145.5 30t-137.5 73q-174 -119 -174 -322q0 -137 121 -252.5t329 -115.5t320.5 88t143.5 88q57 0 57 -53q0 -45 -65.5 -106.5t-189.5 -111t-255 -49.5q-289 0 -459 152q-165 154 -165 342zM559 877q72 -53 180.5 -53.5t108.5 50.5q0 43 -100.5 43.5 t-165.5 -30.5zM475 1923q0 39 45 57q16 8 41 8q47 0 95 -110q29 -63 73.5 -113.5t44.5 -75.5q0 -43 -55 -43t-149 89q-92 90 -93 176q-2 6 -2 12z" />
<glyph unicode="&#xc9;" horiz-adv-x="1292" d="M109 463q0 274 239 432q-113 115 -112.5 289t137.5 278q139 104 313 104.5t305 -64t131 -142.5q0 -49 -41 -66q-12 -2 -35.5 -2t-70.5 31q-133 100 -267.5 100t-222.5 -63q-98 -61 -98 -189.5t90 -201.5q150 72 279 71.5t182 -51.5q61 -45 61 -112q0 -53 -34 -95 q-76 -82 -236 -82q-66 0 -145.5 30t-137.5 73q-174 -119 -174 -322q0 -137 121 -252.5t329 -115.5t320.5 88t143.5 88q57 0 57 -53q0 -45 -65.5 -106.5t-189.5 -111t-255 -49.5q-289 0 -459 152q-165 154 -165 342zM559 877q72 -53 180.5 -53.5t108.5 50.5q0 43 -100.5 43.5 t-165.5 -30.5zM618 1687q0 27 22.5 50.5t57.5 66.5q16 25 39 77t46.5 78.5t58 26.5t54 -22.5t19.5 -54.5q0 -88 -94 -177.5t-148.5 -89.5t-54.5 45z" />
<glyph unicode="&#xca;" horiz-adv-x="1292" d="M109 463q0 274 239 432q-113 115 -112.5 289t137.5 278q139 104 313 104.5t305 -64t131 -142.5q0 -49 -41 -66q-12 -2 -35.5 -2t-70.5 31q-133 100 -267.5 100t-222.5 -63q-98 -61 -98 -189.5t90 -201.5q150 72 279 71.5t182 -51.5q61 -45 61 -112q0 -53 -34 -95 q-76 -82 -236 -82q-66 0 -145.5 30t-137.5 73q-174 -119 -174 -322q0 -137 121 -252.5t329 -115.5t320.5 88t143.5 88q57 0 57 -53q0 -45 -65.5 -106.5t-189.5 -111t-255 -49.5q-289 0 -459 152q-165 154 -165 342zM559 877q72 -53 180.5 -53.5t108.5 50.5q0 43 -100.5 43.5 t-165.5 -30.5zM416 1723q0 33 17.5 50t43.5 40q76 63 115 121q37 47 59 65q25 18 62 18t60.5 -17t63.5 -67.5t60.5 -71t48.5 -44.5q49 -39 58 -60q8 -12 8 -26.5t-6 -30.5q-14 -35 -58 -35h-14q-10 0 -32.5 18.5t-46 50.5t-27.5 34q-84 98 -115 98t-113 -98q-6 -4 -42 -53.5 t-69.5 -49.5t-54.5 17q-18 18 -18 41z" />
<glyph unicode="&#xcb;" horiz-adv-x="1292" d="M109 463q0 274 239 432q-113 115 -112.5 289t137.5 278q139 104 313 104.5t305 -64t131 -142.5q0 -49 -41 -66q-12 -2 -35.5 -2t-70.5 31q-133 100 -267.5 100t-222.5 -63q-98 -61 -98 -189.5t90 -201.5q150 72 279 71.5t182 -51.5q61 -45 61 -112q0 -53 -34 -95 q-76 -82 -236 -82q-66 0 -145.5 30t-137.5 73q-174 -119 -174 -322q0 -137 121 -252.5t329 -115.5t320.5 88t143.5 88q57 0 57 -53q0 -45 -65.5 -106.5t-189.5 -111t-255 -49.5q-289 0 -459 152q-165 154 -165 342zM467 1833q0 49 29.5 84t72.5 35q84 0 84 -99 q0 -45 -29.5 -84.5t-70.5 -39.5q-86 0 -86 104zM559 877q72 -53 180.5 -53.5t108.5 50.5q0 43 -100.5 43.5t-165.5 -30.5zM795 1833q0 49 29.5 84t72.5 35q84 0 84 -99q0 -45 -29.5 -84.5t-70.5 -39.5q-86 0 -86 104z" />
<glyph unicode="&#xcc;" horiz-adv-x="1224" d="M76 357.5q0 148.5 94 241.5t217 93t194.5 -77.5t71.5 -190.5t-75 -164q-25 -14 -41 -14q-31 0 -27 30q0 2 6 23q12 57 12 110.5t-43 99.5t-108.5 46t-109.5 -52t-44 -141.5t66 -171.5q68 -78 196 -77q170 0 266.5 113.5t96.5 318.5l2 364q0 285 -4 465q-121 -18 -203 -18 q-442 0 -442 129q0 72 78 71q10 0 134 -25.5t230.5 -25.5t252.5 25.5t161 25.5q86 0 86 -68.5t-142 -92.5q-4 -193 -4 -486l-2 -346q0 -303 -144 -448.5t-350 -145.5t-317 119q-108 121 -108 269.5zM460 1921q0 39 45 57q16 8 41 8q47 0 95 -110q29 -63 73.5 -113.5 t44.5 -75.5q0 -43 -55 -43t-149 89q-92 90 -93 176q-2 6 -2 12z" />
<glyph unicode="&#xcd;" horiz-adv-x="1224" d="M76 357.5q0 148.5 94 241.5t217 93t194.5 -77.5t71.5 -190.5t-75 -164q-25 -14 -41 -14q-31 0 -27 30q0 2 6 23q12 57 12 110.5t-43 99.5t-108.5 46t-109.5 -52t-44 -141.5t66 -171.5q68 -78 196 -77q170 0 266.5 113.5t96.5 318.5l2 364q0 285 -4 465q-121 -18 -203 -18 q-442 0 -442 129q0 72 78 71q10 0 134 -25.5t230.5 -25.5t252.5 25.5t161 25.5q86 0 86 -68.5t-142 -92.5q-4 -193 -4 -486l-2 -346q0 -303 -144 -448.5t-350 -145.5t-317 119q-108 121 -108 269.5zM578 1688q0 27 22.5 50t56.5 66q16 25 39 77t46.5 79t58.5 27t54 -22.5 t19 -55.5q0 -88 -94 -177.5t-147 -89t-55 45.5z" />
<glyph unicode="&#xce;" horiz-adv-x="1224" d="M76 357.5q0 148.5 94 241.5t217 93t194.5 -77.5t71.5 -190.5t-75 -164q-25 -14 -41 -14q-31 0 -27 30q0 2 6 23q12 57 12 110.5t-43 99.5t-108.5 46t-109.5 -52t-44 -141.5t66 -171.5q68 -78 196 -77q170 0 266.5 113.5t96.5 318.5l2 364q0 285 -4 465q-121 -18 -203 -18 q-442 0 -442 129q0 72 78 71q10 0 134 -25.5t230.5 -25.5t252.5 25.5t161 25.5q86 0 86 -68.5t-142 -92.5q-4 -193 -4 -486l-2 -346q0 -303 -144 -448.5t-350 -145.5t-317 119q-108 121 -108 269.5zM354 1723q0 33 17.5 50t43.5 40q76 63 115 121q37 47 59 65q25 18 62 18 t60.5 -17t63.5 -67.5t60.5 -71t48.5 -44.5q49 -39 58 -60q8 -12 8 -26.5t-6 -30.5q-14 -35 -58 -35h-14q-10 0 -32.5 18.5t-46 50.5t-27.5 34q-84 98 -115 98t-113 -98q-6 -4 -42 -53.5t-69.5 -49.5t-54.5 17q-18 18 -18 41z" />
<glyph unicode="&#xcf;" horiz-adv-x="1224" d="M76 357.5q0 148.5 94 241.5t217 93t194.5 -77.5t71.5 -190.5t-75 -164q-25 -14 -41 -14q-31 0 -27 30q0 2 6 23q12 57 12 110.5t-43 99.5t-108.5 46t-109.5 -52t-44 -141.5t66 -171.5q68 -78 196 -77q170 0 266.5 113.5t96.5 318.5l2 364q0 285 -4 465q-121 -18 -203 -18 q-442 0 -442 129q0 72 78 71q10 0 134 -25.5t230.5 -25.5t252.5 25.5t161 25.5q86 0 86 -68.5t-142 -92.5q-4 -193 -4 -486l-2 -346q0 -303 -144 -448.5t-350 -145.5t-317 119q-108 121 -108 269.5zM406 1833q0 49 29.5 84t72.5 35q84 0 84 -99q0 -45 -30 -84.5t-70 -39.5 q-86 0 -86 104zM733 1833q0 49 30 84t73 35q84 0 84 -99q0 -45 -30 -84.5t-71 -39.5q-86 0 -86 104z" />
<glyph unicode="&#xd0;" horiz-adv-x="1490" d="M14 761q0 30 23 48q25 18 66.5 18t170.5 -6l-10 518q-98 0 -98 78q0 70 137 104.5t304 34.5t320.5 -68.5t252.5 -184.5q197 -236 196.5 -550.5t-190.5 -539.5q-94 -115 -244.5 -179.5t-339 -64.5t-317.5 43q-127 47 -127 115q0 39 35 53q12 4 30.5 4t44.5 -14l6 526 l-188 -4q-27 0 -49.5 19.5t-22.5 49.5zM422 698q0 -346 12 -571q57 -12 172 -12q291 0 451 186t160 452.5t-156 452.5q-78 94 -202 148.5t-273 54.5q-78 0 -154 -18q-10 -160 -10 -570l258 6q37 0 60.5 -18t23.5 -49q0 -68 -107 -68q-57 0 -235 6z" />
<glyph unicode="&#xd1;" horiz-adv-x="1798" d="M63 270.5q0 112.5 77 201.5t184 89q45 0 74.5 -21.5t29.5 -62.5q0 -76 -98 -76q-45 0 -78 -37.5t-33 -94t31 -92.5t86 -36q190 0 190 590q0 162 -32.5 424t-32.5 306t28.5 71t67.5 27q57 0 92 -72q111 -215 315.5 -575.5t354.5 -598.5q-8 0 -19.5 286t-11.5 376 q0 227 45 387q27 92 87.5 144.5t139 52.5t134 -42t55.5 -97.5t-47 -55.5q-14 0 -59.5 18.5t-79.5 18.5q-129 0 -129 -592q0 -139 22.5 -426t22.5 -319.5t-28 -59.5t-65 -27q-55 0 -96 72q-102 182 -233 408l-260 465q-113 209 -156 274q29 -270 29 -514q0 -698 -344 -698 q-121 0 -192 87t-71 199.5zM671 1747.5q0 59.5 65.5 113.5t151.5 54t190.5 -57t149.5 -57t79 52t52.5 52t30.5 -17.5t12 -39.5q0 -70 -52 -122t-122.5 -52t-168 56t-132 56t-61.5 -18.5t-34 -27.5t-36 -48q-27 -31 -47 -31t-35 7q-43 20 -43 79.5z" />
<glyph unicode="&#xd2;" horiz-adv-x="1660" d="M113 766q0 143 29.5 232t88.5 89q29 0 47.5 -19t18.5 -39.5t-13.5 -107.5t-13.5 -155q0 -301 170 -477t400 -176q166 0 294 92t189 236.5t61 303.5v21q0 270 -119.5 463.5t-318.5 193.5q-139 0 -245.5 -101t-157.5 -248.5t-51 -252t6 -168t11 -99.5t5 -42q0 -51 -47 -51 q-41 0 -76 105.5t-35 219.5q0 313 162 547t424 234t431 -225.5t169 -562.5t-193.5 -573.5t-503.5 -236.5t-521 223.5t-211 573.5zM706 1921q0 39 45 57q16 8 41 8q47 0 95 -110q29 -63 73.5 -113.5t44.5 -75.5q0 -43 -55 -43t-149 89q-92 90 -93 176q-2 6 -2 12z" />
<glyph unicode="&#xd3;" horiz-adv-x="1660" d="M113 766q0 143 29.5 232t88.5 89q29 0 47.5 -19t18.5 -39.5t-13.5 -107.5t-13.5 -155q0 -301 170 -477t400 -176q166 0 294 92t189 236.5t61 303.5v21q0 270 -119.5 463.5t-318.5 193.5q-139 0 -245.5 -101t-157.5 -248.5t-51 -252t6 -168t11 -99.5t5 -42q0 -51 -47 -51 q-41 0 -76 105.5t-35 219.5q0 313 162 547t424 234t431 -225.5t169 -562.5t-193.5 -573.5t-503.5 -236.5t-521 223.5t-211 573.5zM823 1687q0 27 22.5 50.5t57.5 66.5q16 25 39 77t46.5 78.5t58 26.5t54 -22.5t19.5 -54.5q0 -88 -94 -177.5t-148.5 -89.5t-54.5 45z" />
<glyph unicode="&#xd4;" horiz-adv-x="1660" d="M113 766q0 143 29.5 232t88.5 89q29 0 47.5 -19t18.5 -39.5t-13.5 -107.5t-13.5 -155q0 -301 170 -477t400 -176q166 0 294 92t189 236.5t61 303.5v21q0 270 -119.5 463.5t-318.5 193.5q-139 0 -245.5 -101t-157.5 -248.5t-51 -252t6 -168t11 -99.5t5 -42q0 -51 -47 -51 q-41 0 -76 105.5t-35 219.5q0 313 162 547t424 234t431 -225.5t169 -562.5t-193.5 -573.5t-503.5 -236.5t-521 223.5t-211 573.5zM639 1728.5q0 24.5 18.5 43t44.5 40.5q76 63 115 121q37 47 60 66q25 18 61.5 18t60 -17.5t63.5 -67.5t60.5 -70.5t48.5 -42.5q49 -41 58 -62 q8 -10 8 -24.5t-6 -32.5q-14 -35 -57 -35h-15q-10 0 -32.5 18.5t-46 50t-27.5 33.5q-82 98 -114 98.5t-114 -98.5q-6 -4 -41.5 -53t-69.5 -49t-55 16q-20 23 -20 47.5z" />
<glyph unicode="&#xd5;" horiz-adv-x="1660" d="M113 766q0 143 29.5 232t88.5 89q29 0 47.5 -19t18.5 -39.5t-13.5 -107.5t-13.5 -155q0 -301 170 -477t400 -176q166 0 294 92t189 236.5t61 303.5v21q0 270 -119.5 463.5t-318.5 193.5q-139 0 -245.5 -101t-157.5 -248.5t-51 -252t6 -168t11 -99.5t5 -42q0 -51 -47 -51 q-41 0 -76 105.5t-35 219.5q0 313 162 547t424 234t431 -225.5t169 -562.5t-193.5 -573.5t-503.5 -236.5t-521 223.5t-211 573.5zM569 1747.5q0 59.5 65.5 113.5t151.5 54t190.5 -57t149.5 -57t79 52t52.5 52t30.5 -17.5t12 -39.5q0 -70 -52 -122t-122.5 -52t-168 56 t-132 56t-61.5 -18.5t-34 -27.5t-36 -48q-27 -31 -47 -31t-35 7q-43 20 -43 79.5z" />
<glyph unicode="&#xd6;" horiz-adv-x="1660" d="M113 766q0 143 29.5 232t88.5 89q29 0 47.5 -19t18.5 -39.5t-13.5 -107.5t-13.5 -155q0 -301 170 -477t400 -176q166 0 294 92t189 236.5t61 303.5v21q0 270 -119.5 463.5t-318.5 193.5q-139 0 -245.5 -101t-157.5 -248.5t-51 -252t6 -168t11 -99.5t5 -42q0 -51 -47 -51 q-41 0 -76 105.5t-35 219.5q0 313 162 547t424 234t431 -225.5t169 -562.5t-193.5 -573.5t-503.5 -236.5t-521 223.5t-211 573.5zM651 1833q0 49 30 84t73 35q84 0 84 -99q0 -45 -30 -84.5t-71 -39.5q-86 0 -86 104zM979 1833q0 49 29.5 84t72.5 35q84 0 84 -99 q0 -45 -29.5 -84.5t-70.5 -39.5q-86 0 -86 104z" />
<glyph unicode="&#xd7;" horiz-adv-x="1032" d="M143 201.5q0 17.5 2 26t5.5 14.5t12.5 16t15 16.5t22.5 20.5t43.5 41l188 188q-33 37 -149 150l-115 112q-20 27 -20.5 51.5t20 45t50.5 20.5t49.5 -19.5t109.5 -119.5l139 -148q229 250 236 256q35 35 61.5 35t48.5 -22q20 -25 20.5 -56.5t-83.5 -103.5 q-168 -164 -199 -199l268 -268q20 -18 20.5 -46t-19 -48.5t-43 -20.5t-43 12.5t-31 25t-61.5 67.5t-175 188l-250 -270q-25 -25 -55.5 -25t-49 21.5t-18.5 39z" />
<glyph unicode="&#xd8;" horiz-adv-x="1660" d="M102 766q0 135 29 228t90 93q29 0 47.5 -19t18.5 -49t-13.5 -97.5t-13.5 -155.5q0 -207 84 -357.5t223 -228.5q59 133 244 602l242 621q-49 20 -117 20q-139 0 -246.5 -103t-158 -249.5t-50.5 -276.5t11.5 -196t11.5 -86q0 -51 -47 -51q-41 0 -76 103.5t-35 221.5 q0 311 163 546t417 235q92 0 178 -31q41 111 98 111q35 0 55.5 -20.5t20.5 -46.5t-5 -41t-16.5 -39.5t-15.5 -35.5q139 -100 215 -282.5t76 -415.5q0 -326 -193.5 -561.5t-509.5 -235.5q-100 0 -184 23q-4 -8 -12 -30.5t-14.5 -34t-16.5 -27.5q-18 -31 -54 -31t-59.5 19.5 t-23.5 46t37 114.5q-186 92 -293 278.5t-107 438.5zM694 129q57 -16 135 -16q168 0 295 93t188.5 239.5t61.5 320.5t-49 322.5t-143 234.5q-334 -782 -488 -1194z" />
<glyph unicode="&#xd9;" horiz-adv-x="1624" d="M57 1290q0 86 54 176q66 100 200.5 100.5t206.5 -93t72 -207t-52.5 -391t-52.5 -351.5q0 -190 61.5 -300.5t183.5 -110.5t229.5 145t163 322.5t65.5 345.5q-6 143 -6 495q0 135 88 135q106 0 106 -170q0 -41 -53 -524q4 -221 45 -448.5t80 -268.5q12 -14 55 -17t43 -24 q0 -57 -39 -96q-41 -41 -81 -41t-54 13q-31 16 -65 73q-31 57 -50 159l-20 113q-2 11 -9 67.5t-11 72.5q-49 -190 -171 -343t-326 -153t-306 158q-90 145 -90 320.5t56 433.5t56 366q0 166 -125 166q-47 0 -78.5 -37t-31.5 -86t18.5 -82.5t36.5 -52t18 -29.5q0 -49 -57 -49 t-108.5 63.5t-51.5 149.5zM645 1921q0 39 45 57q16 8 41 8q47 0 95 -110q29 -63 73.5 -113.5t44.5 -75.5q0 -43 -55 -43t-149 89q-92 90 -93 176q-2 6 -2 12z" />
<glyph unicode="&#xda;" horiz-adv-x="1624" d="M57 1290q0 86 54 176q66 100 200.5 100.5t206.5 -93t72 -207t-52.5 -391t-52.5 -351.5q0 -190 61.5 -300.5t183.5 -110.5t229.5 145t163 322.5t65.5 345.5q-6 143 -6 495q0 135 88 135q106 0 106 -170q0 -41 -53 -524q4 -221 45 -448.5t80 -268.5q12 -14 55 -17t43 -24 q0 -57 -39 -96q-41 -41 -81 -41t-54 13q-31 16 -65 73q-31 57 -50 159l-20 113q-2 11 -9 67.5t-11 72.5q-49 -190 -171 -343t-326 -153t-306 158q-90 145 -90 320.5t56 433.5t56 366q0 166 -125 166q-47 0 -78.5 -37t-31.5 -86t18.5 -82.5t36.5 -52t18 -29.5q0 -49 -57 -49 t-108.5 63.5t-51.5 149.5zM761 1687q0 27 22.5 50.5t57.5 66.5q16 25 39 77t46.5 78.5t58 26.5t54 -22.5t19.5 -54.5q0 -88 -94 -177.5t-148.5 -89.5t-54.5 45z" />
<glyph unicode="&#xdb;" horiz-adv-x="1624" d="M57 1290q0 86 54 176q66 100 200.5 100.5t206.5 -93t72 -207t-52.5 -391t-52.5 -351.5q0 -190 61.5 -300.5t183.5 -110.5t229.5 145t163 322.5t65.5 345.5q-6 143 -6 495q0 135 88 135q106 0 106 -170q0 -41 -53 -524q4 -221 45 -448.5t80 -268.5q12 -14 55 -17t43 -24 q0 -57 -39 -96q-41 -41 -81 -41t-54 13q-31 16 -65 73q-31 57 -50 159l-20 113q-2 11 -9 67.5t-11 72.5q-49 -190 -171 -343t-326 -153t-306 158q-90 145 -90 320.5t56 433.5t56 366q0 166 -125 166q-47 0 -78.5 -37t-31.5 -86t18.5 -82.5t36.5 -52t18 -29.5q0 -49 -57 -49 t-108.5 63.5t-51.5 149.5zM578 1728.5q0 24.5 18 43t45 40.5q76 63 115 121q37 47 59 66q25 18 61.5 18t60.5 -17.5t63.5 -67.5t60 -70.5t49.5 -42.5q49 -41 57 -62q8 -10 8.5 -24.5t-6.5 -32.5q-14 -35 -57 -35h-14q-10 0 -33 18.5t-46.5 50t-27.5 33.5q-84 98 -113.5 98.5 t-113.5 -98.5q-6 -4 -42 -53t-70 -49t-54 16q-20 23 -20 47.5z" />
<glyph unicode="&#xdc;" horiz-adv-x="1624" d="M57 1290q0 86 54 176q66 100 200.5 100.5t206.5 -93t72 -207t-52.5 -391t-52.5 -351.5q0 -190 61.5 -300.5t183.5 -110.5t229.5 145t163 322.5t65.5 345.5q-6 143 -6 495q0 135 88 135q106 0 106 -170q0 -41 -53 -524q4 -221 45 -448.5t80 -268.5q12 -14 55 -17t43 -24 q0 -57 -39 -96q-41 -41 -81 -41t-54 13q-31 16 -65 73q-31 57 -50 159l-20 113q-2 11 -9 67.5t-11 72.5q-49 -190 -171 -343t-326 -153t-306 158q-90 145 -90 320.5t56 433.5t56 366q0 166 -125 166q-47 0 -78.5 -37t-31.5 -86t18.5 -82.5t36.5 -52t18 -29.5q0 -49 -57 -49 t-108.5 63.5t-51.5 149.5zM604 1835q0 49 30 84t73 35q84 0 84 -99q0 -45 -30 -84.5t-71 -39.5q-86 0 -86 104zM932 1835q0 49 29.5 84t72.5 35q84 0 84 -99q0 -45 -29.5 -84.5t-70.5 -39.5q-86 0 -86 104z" />
<glyph unicode="&#xdd;" horiz-adv-x="1193" d="M43 1460q0 96 74 96q20 0 40.5 -19t30 -47t25.5 -92.5t41 -146.5q70 -233 192 -387q68 -84 129 -84q31 0 46 8q90 571 235 715q61 61 134 61.5t111 -45.5t38 -124q0 -170 -118 -363.5t-257 -331.5q-16 -102 -16 -276t10 -328.5t10 -185.5t-23.5 -57.5t-60.5 -26.5 q-78 0 -90 190q-2 49 -2 174t24 445q-25 -4 -53 -4q-104 0 -189 78.5t-164 246.5t-123 306.5t-44 197.5zM498 1688q0 27 22.5 50t57.5 66q16 25 38.5 77t46 79t58.5 27t54.5 -22.5t19.5 -55.5q0 -88 -94.5 -177.5t-148.5 -89t-54 45.5zM770 889q78 90 153.5 243.5 t75.5 241.5q0 43 -22 43q-43 0 -121 -213t-86 -315z" />
<glyph unicode="&#xde;" horiz-adv-x="1161" d="M201 82l10 686l-10 686q0 102 77.5 102t77.5 -102q0 -37 -6 -215q100 35 242 35q229 0 370.5 -123t141.5 -308.5t-141.5 -308t-372.5 -122.5q-141 0 -242 34l8 -364q0 -102 -77.5 -102t-77.5 102zM348 814q0 -183 2 -241q104 -33 251 -32.5t248 83.5t101 219t-101 219 t-246.5 83t-250.5 -33q-4 -115 -4 -298z" />
<glyph unicode="&#xdf;" horiz-adv-x="1114" d="M41 963q0 31 22.5 48t55.5 17l102 -4v174q0 182 89 270t239.5 88t236.5 -82.5t86 -213.5q0 -78 -32.5 -152t-79.5 -121q-113 -106 -113 -176q0 -111 144 -203q197 -115 241 -223q23 -53 23 -117q0 -125 -85 -206.5t-204 -81.5t-202 46t-83 103q0 70 68 70q16 0 79.5 -44 t121 -44t106.5 43q49 39 49 102q0 113 -106 182q-23 16 -73 48t-81 53q-152 100 -151 249q0 129 112 238q113 119 113 206t-46 137t-128 50q-174 0 -174 -239v-1096q0 -47 -21.5 -75.5t-58.5 -28.5t-58.5 27.5t-21.5 76.5t6 241.5t6 442.5v137l-104 -4q-78 1 -78 62z" />
<glyph unicode="&#xe0;" horiz-adv-x="1169" d="M98 489q0 223 129 389t332 166q154 0 266 -104q0 104 78 104q94 0 94 -140t-41 -408q0 -150 21.5 -249.5t54.5 -111.5q12 -6 29.5 -8t25 -6t7.5 -17q0 -57 -31 -90.5t-89.5 -33.5t-91 74.5t-32.5 195.5q-55 -119 -153.5 -194.5t-222.5 -75.5t-212 81q-164 152 -164 428z M244 499q0 -171 63.5 -278.5t176 -107.5t207.5 100t147 264l-11 316q-121 119 -256 118.5t-231 -121t-96 -291.5zM393 1491q0 39 45 57q16 8 41 8q47 0 95 -110q29 -63 73.5 -113.5t44.5 -75.5q0 -43 -55 -43t-149 89q-92 90 -93 176q-2 6 -2 12z" />
<glyph unicode="&#xe1;" horiz-adv-x="1169" d="M98 489q0 223 129 389t332 166q154 0 266 -104q0 104 78 104q94 0 94 -140t-41 -408q0 -150 21.5 -249.5t54.5 -111.5q12 -6 29.5 -8t25 -6t7.5 -17q0 -57 -31 -90.5t-89.5 -33.5t-91 74.5t-32.5 195.5q-55 -119 -153.5 -194.5t-222.5 -75.5t-212 81q-164 152 -164 428z M244 499q0 -171 63.5 -278.5t176 -107.5t207.5 100t147 264l-11 316q-121 119 -256 118.5t-231 -121t-96 -291.5zM498 1257q0 27 22.5 50.5t57.5 66.5q16 25 38.5 77t46 78.5t58.5 26.5t54.5 -22.5t19.5 -54.5q0 -88 -94.5 -177.5t-148.5 -89.5t-54 45z" />
<glyph unicode="&#xe2;" horiz-adv-x="1169" d="M98 489q0 223 129 389t332 166q154 0 266 -104q0 104 78 104q94 0 94 -140t-41 -408q0 -150 21.5 -249.5t54.5 -111.5q12 -6 29.5 -8t25 -6t7.5 -17q0 -57 -31 -90.5t-89.5 -33.5t-91 74.5t-32.5 195.5q-55 -119 -153.5 -194.5t-222.5 -75.5t-212 81q-164 152 -164 428z M244 499q0 -171 63.5 -278.5t176 -107.5t207.5 100t147 264l-11 316q-121 119 -256 118.5t-231 -121t-96 -291.5zM287 1262q0 33 17.5 50t43.5 40q76 63 115 121q37 47 59 65q25 18 62 18t60.5 -17t63.5 -67.5t60 -71t49 -44.5q49 -39 57 -60q8 -12 8.5 -26.5t-5.5 -30.5 q-14 -35 -58 -35h-14q-10 0 -32.5 18.5t-46.5 50.5t-28 34q-82 98 -113.5 98t-113.5 -98q-6 -4 -42 -53.5t-69.5 -49.5t-54.5 17q-18 18 -18 41z" />
<glyph unicode="&#xe3;" horiz-adv-x="1169" d="M98 489q0 223 129 389t332 166q154 0 266 -104q0 104 78 104q94 0 94 -140t-41 -408q0 -150 21.5 -249.5t54.5 -111.5q12 -6 29.5 -8t25 -6t7.5 -17q0 -57 -31 -90.5t-89.5 -33.5t-91 74.5t-32.5 195.5q-55 -119 -153.5 -194.5t-222.5 -75.5t-212 81q-164 152 -164 428z M244 499q0 -171 63.5 -278.5t176 -107.5t207.5 100t147 264l-11 316q-121 119 -256 118.5t-231 -121t-96 -291.5zM260 1296.5q0 59.5 64.5 113.5t151.5 54t191.5 -57t149.5 -57t79 52t52.5 52t30.5 -17.5t12 -39.5q0 -70 -52 -122t-123 -52t-168 56t-132 56t-61.5 -18.5 t-33.5 -27.5t-36 -48q-27 -31 -47.5 -31t-34.5 7q-43 20 -43 79.5z" />
<glyph unicode="&#xe4;" horiz-adv-x="1169" d="M98 489q0 223 129 389t332 166q154 0 266 -104q0 104 78 104q94 0 94 -140t-41 -408q0 -150 21.5 -249.5t54.5 -111.5q12 -6 29.5 -8t25 -6t7.5 -17q0 -57 -31 -90.5t-89.5 -33.5t-91 74.5t-32.5 195.5q-55 -119 -153.5 -194.5t-222.5 -75.5t-212 81q-164 152 -164 428z M244 499q0 -171 63.5 -278.5t176 -107.5t207.5 100t147 264l-11 316q-121 119 -256 118.5t-231 -121t-96 -291.5zM328 1366q0 49 29.5 84t72.5 35q84 0 84 -99q0 -45 -29.5 -84.5t-70.5 -39.5q-86 0 -86 104zM655 1366q0 49 30 84t73 35q84 0 84 -99q0 -45 -30 -84.5 t-71 -39.5q-86 0 -86 104z" />
<glyph unicode="&#xe5;" horiz-adv-x="1169" d="M98 489q0 223 129 389t332 166q154 0 266 -104q0 104 78 104q94 0 94 -140t-41 -408q0 -150 21.5 -249.5t54.5 -111.5q12 -6 29.5 -8t25 -6t7.5 -17q0 -57 -31 -90.5t-89.5 -33.5t-91 74.5t-32.5 195.5q-55 -119 -153.5 -194.5t-222.5 -75.5t-212 81q-164 152 -164 428z M244 499q0 -171 63.5 -278.5t176 -107.5t207.5 100t147 264l-11 316q-121 119 -256 118.5t-231 -121t-96 -291.5zM389 1371q0 83 53 139.5t133 56.5t133.5 -56.5t53.5 -138.5t-51.5 -137t-134.5 -55t-136 53q-51 55 -51 138zM485 1373q0 -38 27 -67.5t63.5 -29.5t63 29.5 t26.5 67.5t-27.5 67.5t-62 29.5t-62.5 -29.5t-28 -67.5z" />
<glyph unicode="&#xe6;" horiz-adv-x="1714" d="M80 305.5q0 145.5 106 239.5q115 102 265.5 102t306.5 -51q0 166 -72 245t-189.5 79t-182 -60.5t-99.5 -60.5q-70 0 -70 63.5t103.5 128t236.5 64.5t229.5 -60.5t147.5 -167.5q147 227 398 228q150 0 252 -92.5t102 -241t-127 -224t-292 -75.5t-284 22 q12 -141 106.5 -241.5t222.5 -100.5t210 62.5t107.5 62.5t41 -15t15.5 -38q0 -57 -118 -131t-255 -74q-274 0 -405 248q-125 -248 -392 -248q-154 0 -260 94q-104 97 -104 242.5zM225 306q0 -87 67.5 -144.5t174 -57.5t197 95.5t90.5 265.5q-139 49 -264 49t-195 -60.5 t-70 -147.5zM913 578q104 -27 245.5 -27t225.5 47t84 129t-56 138.5t-152 56.5q-135 0 -226.5 -102.5t-120.5 -241.5z" />
<glyph unicode="&#xe7;" horiz-adv-x="1042" d="M94 530.5q0 208.5 143.5 366.5t380.5 158q127 0 227.5 -58.5t100.5 -116t-41 -73.5q-12 -4 -33.5 -4t-54.5 28q-109 90 -217 91q-141 0 -248 -119q-104 -119 -104 -290t107.5 -291t262.5 -120q123 0 236 82q39 27 59 27q51 0 51.5 -54.5t-116.5 -120t-248 -67.5 q6 -57 110.5 -111.5t104.5 -136t-71.5 -137t-169 -55.5t-162 45t-64.5 98q0 14 10.5 26.5t26.5 12.5t71.5 -26.5t99.5 -26.5t78 20.5t34 43t-33 49.5q-4 4 -46 32.5t-60.5 46t-39 55.5t-20.5 83q-166 43 -272 188q-103 146 -103 354.5z" />
<glyph unicode="&#xe8;" horiz-adv-x="1103" d="M49 586q0 47 35 61q12 4 31.5 4t54.5 -18q47 186 171 304t291 118t269.5 -92.5t102.5 -241t-127 -224t-316 -75.5q-106 0 -260 31q12 -145 107.5 -248t222.5 -103t209 62.5t107.5 62.5t41 -15t15.5 -38q0 -57 -118 -131t-255 -74q-213 0 -339 150.5t-134 359.5 q-109 35 -109 107zM303 584q111 -33 249 -33t222 47t84 129t-56.5 138.5t-152.5 56.5q-135 0 -226 -101.5t-120 -236.5zM389 1491q0 39 45 57q16 8 41 8q47 0 95 -110q29 -63 73.5 -113.5t44.5 -75.5q0 -43 -55 -43t-149 89q-92 90 -93 176q-2 6 -2 12z" />
<glyph unicode="&#xe9;" horiz-adv-x="1103" d="M49 586q0 47 35 61q12 4 31.5 4t54.5 -18q47 186 171 304t291 118t269.5 -92.5t102.5 -241t-127 -224t-316 -75.5q-106 0 -260 31q12 -145 107.5 -248t222.5 -103t209 62.5t107.5 62.5t41 -15t15.5 -38q0 -57 -118 -131t-255 -74q-213 0 -339 150.5t-134 359.5 q-109 35 -109 107zM303 584q111 -33 249 -33t222 47t84 129t-56.5 138.5t-152.5 56.5q-135 0 -226 -101.5t-120 -236.5zM520 1257q0 27 22.5 50.5t57.5 66.5q16 25 39 77t46.5 78.5t58 26.5t54 -22.5t19.5 -54.5q0 -88 -94 -177.5t-147.5 -89.5t-55.5 45z" />
<glyph unicode="&#xea;" horiz-adv-x="1103" d="M49 586q0 47 35 61q12 4 31.5 4t54.5 -18q47 186 171 304t291 118t269.5 -92.5t102.5 -241t-127 -224t-316 -75.5q-106 0 -260 31q12 -145 107.5 -248t222.5 -103t209 62.5t107.5 62.5t41 -15t15.5 -38q0 -57 -118 -131t-255 -74q-213 0 -339 150.5t-134 359.5 q-109 35 -109 107zM303 584q111 -33 249 -33t222 47t84 129t-56.5 138.5t-152.5 56.5q-135 0 -226 -101.5t-120 -236.5zM311 1265.5q0 24.5 18.5 44t45.5 42.5q76 63 114 121q37 47 60 65q25 18 61.5 18t60 -17t63.5 -67.5t60.5 -71t49.5 -44.5q49 -39 57 -60q8 -12 8 -26.5 t-6 -30.5q-14 -35 -57 -35h-15q-10 0 -32.5 18.5t-46 50.5t-27.5 34q-82 98 -112.5 98t-114.5 -98q-10 -6 -31 -37q-47 -66 -81 -66t-54 17q-21 20 -21 44.5z" />
<glyph unicode="&#xeb;" horiz-adv-x="1103" d="M49 586q0 47 35 61q12 4 31.5 4t54.5 -18q47 186 171 304t291 118t269.5 -92.5t102.5 -241t-127 -224t-316 -75.5q-106 0 -260 31q12 -145 107.5 -248t222.5 -103t209 62.5t107.5 62.5t41 -15t15.5 -38q0 -57 -118 -131t-255 -74q-213 0 -339 150.5t-134 359.5 q-109 35 -109 107zM303 584q111 -33 249 -33t222 47t84 129t-56.5 138.5t-152.5 56.5q-135 0 -226 -101.5t-120 -236.5zM360 1366q0 49 30 84t73 35q84 0 84 -99q0 -45 -30 -84.5t-71 -39.5q-86 0 -86 104zM688 1366q0 49 30 84t73 35q84 0 83 -99q0 -45 -29.5 -84.5 t-70.5 -39.5q-86 0 -86 104z" />
<glyph unicode="&#xec;" horiz-adv-x="458" d="M59 1491q0 39 45 57q16 8 41 8q47 0 95 -110q29 -63 73.5 -113.5t44.5 -75.5q0 -43 -55 -43t-149 89q-92 90 -93 176q-2 6 -2 12zM152 82l10 430q-4 143 -10 430q0 102 77.5 102t77.5 -102l-10 -430l10 -430q0 -102 -77.5 -102t-77.5 102z" />
<glyph unicode="&#xed;" horiz-adv-x="458" d="M152 82l10 430q-4 143 -10 430q0 102 77.5 102t77.5 -102l-10 -430l10 -430q0 -102 -77.5 -102t-77.5 102zM100 1257q0 27 22.5 50.5t57.5 66.5q16 25 39 77t46.5 78.5t58 26.5t54 -22.5t19.5 -54.5q0 -88 -94 -177.5t-148.5 -89.5t-54.5 45z" />
<glyph unicode="&#xee;" horiz-adv-x="458" d="M-68 1260q0 39 29 61q4 4 58.5 52t89.5 100q37 47 59 65q25 18 61.5 18t60 -17t63.5 -67.5t60.5 -71t49.5 -44.5q49 -39 57 -60q8 -12 8 -26.5t-6 -30.5q-14 -35 -57 -35h-14q-10 0 -33 18.5t-46.5 50.5t-27.5 34q-84 98 -113.5 98t-113.5 -98q-10 -6 -31 -37 q-47 -66 -81 -66t-54 17q-19 25 -19 39zM152 82l10 430q-4 143 -10 430q0 102 77.5 102t77.5 -102l-10 -430l10 -430q0 -102 -77.5 -102t-77.5 102z" />
<glyph unicode="&#xef;" horiz-adv-x="458" d="M-27 1366q0 49 30 84t73 35q84 0 84 -99q0 -45 -30 -84.5t-71 -39.5q-86 0 -86 104zM152 82l10 430q-4 143 -10 430q0 102 77.5 102t77.5 -102l-10 -430l10 -430q0 -102 -77.5 -102t-77.5 102zM301 1366q0 49 29.5 84t72.5 35q84 0 84 -99q0 -45 -29.5 -84.5t-70.5 -39.5 q-86 0 -86 104z" />
<glyph unicode="&#xf0;" horiz-adv-x="1171" d="M98 494.5q0 201.5 115 353t315 151.5q111 0 206 -48t149 -120q-51 260 -238 422q-16 -14 -121 -118q-39 -37 -67.5 -37t-48 23.5t-19.5 39t8 25.5q10 23 52 53q10 10 50 41t52 41q-86 51 -195 61q-39 2 -65 11q-49 12 -49 61q0 27 26.5 45.5t71.5 18.5q143 0 313 -97 q37 31 113 107q39 37 67.5 37t49 -19.5t20.5 -39t-7 -36t-44 -49.5l-98 -80q137 -125 213.5 -318.5t76.5 -406.5q0 -285 -121.5 -460.5t-363.5 -175.5q-205 0 -334 155q-127 158 -127 359.5zM246 494.5q0 -158.5 90 -273.5q92 -111 227 -110.5t227.5 110t92.5 262t-92.5 269 t-235.5 116.5t-226 -107.5t-83 -266z" />
<glyph unicode="&#xf1;" horiz-adv-x="1185" d="M139 120q0 140 41 408q0 86 -17.5 242t-17.5 188.5t22.5 59t57.5 26.5t57.5 -26.5t22.5 -57t-1 -92t-1 -84.5q150 260 369 260q164 0 254 -117.5t90 -281.5l-10 -321v-88q4 -84 41 -101q14 -4 32.5 -7t25.5 -7t7 -17q0 -53 -34 -88.5t-79 -35.5q-76 0 -106.5 59 t-30.5 182l8 377q0 141 -60 226t-164.5 85t-202 -115.5t-138.5 -265.5l6 -444q0 -104 -78 -104q-94 0 -94 140zM213 1296.5q0 59.5 65.5 113.5t151.5 54t190.5 -57t149.5 -57t79 52t52.5 52t30.5 -17.5t12 -39.5q0 -70 -52 -122t-122.5 -52t-168 56t-132 56t-61.5 -18.5 t-34 -27.5t-36 -48q-27 -31 -47 -31t-35 7q-43 20 -43 79.5z" />
<glyph unicode="&#xf2;" d="M94 510q0 227 137.5 386t346 159t344 -157t135.5 -385t-138.5 -386t-346 -158t-343 157t-135.5 384zM240 510q0 -170 94 -289t236.5 -119t241.5 120t99 290t-95 290t-235.5 120t-242.5 -121q-98 -121 -98 -291zM383 1491q0 39 45 57q16 8 41 8q47 0 94 -110 q29 -63 74 -113.5t45 -75.5q0 -43 -55.5 -43t-149.5 89q-92 90 -92 176q-2 6 -2 12z" />
<glyph unicode="&#xf3;" d="M94 510q0 227 137.5 386t346 159t344 -157t135.5 -385t-138.5 -386t-346 -158t-343 157t-135.5 384zM240 510q0 -170 94 -289t236.5 -119t241.5 120t99 290t-95 290t-235.5 120t-242.5 -121q-98 -121 -98 -291zM487 1257q0 27 22.5 50.5t57.5 66.5q16 25 39 77t46.5 78.5 t58 26.5t54 -22.5t19.5 -54.5q0 -88 -94 -177.5t-148.5 -89.5t-54.5 45z" />
<glyph unicode="&#xf4;" d="M94 510q0 227 137.5 386t346 159t344 -157t135.5 -385t-138.5 -386t-346 -158t-343 157t-135.5 384zM240 510q0 -170 94 -289t236.5 -119t241.5 120t99 290t-95 290t-235.5 120t-242.5 -121q-98 -121 -98 -291zM274 1265.5q0 24.5 18.5 44t45.5 42.5q76 63 115 121 q37 47 59 65q25 18 61.5 18t60 -17t63.5 -67.5t60.5 -71t49.5 -44.5q49 -39 57 -60q8 -12 8 -26.5t-6 -30.5q-14 -35 -57 -35h-14q-10 0 -33 18.5t-46.5 50.5t-27.5 34q-82 98 -112.5 98t-114.5 -98q-6 -4 -42 -53.5t-70 -49.5t-54 17q-21 20 -21 44.5z" />
<glyph unicode="&#xf5;" d="M94 510q0 227 137.5 386t346 159t344 -157t135.5 -385t-138.5 -386t-346 -158t-343 157t-135.5 384zM240 510q0 -170 94 -289t236.5 -119t241.5 120t99 290t-95 290t-235.5 120t-242.5 -121q-98 -121 -98 -291zM209 1296.5q0 59.5 65.5 113.5t151.5 54t190.5 -57 t149.5 -57t79 52t52.5 52t30.5 -17.5t12 -39.5q0 -70 -52 -122t-122.5 -52t-168 56t-132 56t-61.5 -18.5t-34 -27.5t-36 -48q-27 -31 -47 -31t-35 7q-43 20 -43 79.5z" />
<glyph unicode="&#xf6;" d="M94 510q0 227 137.5 386t346 159t344 -157t135.5 -385t-138.5 -386t-346 -158t-343 157t-135.5 384zM240 510q0 -170 94 -289t236.5 -119t241.5 120t99 290t-95 290t-235.5 120t-242.5 -121q-98 -121 -98 -291zM317 1366q0 49 30 84t73 35q84 0 84 -99q0 -45 -30 -84.5 t-71 -39.5q-86 0 -86 104zM645 1366q0 49 30 84t73 35q84 0 83 -99q0 -45 -29.5 -84.5t-70.5 -39.5q-86 0 -86 104z" />
<glyph unicode="&#xf7;" horiz-adv-x="1142" d="M125 534.5q0 18.5 15.5 43t58.5 24.5h10l362 -6l363 6h10q43 0 58.5 -24.5t15.5 -43t-15.5 -43t-58.5 -24.5h-10l-363 6l-362 -6h-10q-43 0 -58.5 24.5t-15.5 43zM479 189.5q0 46.5 29 83t70 36.5q86 0 86 -106q0 -45 -29 -83t-70 -38t-63.5 30.5t-22.5 77zM479 867 q0 46 29 83t70 37q86 0 86 -106q0 -45 -29 -83t-70 -38t-63.5 30.5t-22.5 76.5z" />
<glyph unicode="&#xf8;" d="M94 512q0 225 137.5 384t341.5 159q68 0 129 -19l35 94q31 72 84 72q29 0 50.5 -21.5t21.5 -54t-53 -155.5q102 -72 159.5 -193t57.5 -266q0 -227 -138.5 -385t-343.5 -158q-57 0 -131 19l-36 -103q-29 -72 -84 -71q-29 0 -50.5 21.5t-21.5 54t55 163.5 q-100 72 -156.5 193t-56.5 266zM240 491.5q0 -188.5 127 -305.5q168 389 290 723q-37 12 -79 13q-137 0 -240 -121q-98 -121 -98 -309.5zM492 113q51 -10 81 -11q139 0 238.5 120t99.5 307.5t-129 310.5q-120 -278 -290 -727z" />
<glyph unicode="&#xf9;" horiz-adv-x="1196" d="M127 972.5q0 22.5 25.5 47t62.5 24.5q94 0 94 -167l-16 -451q0 -141 60.5 -227t165 -86t202.5 116q96 119 137 267l-6 444q0 104 78 104q94 0 94 -140t-41 -408q0 -150 21.5 -249.5t54.5 -111.5q12 -6 29.5 -8t24.5 -6t7 -17q0 -55 -33.5 -89.5t-85.5 -34.5 q-129 0 -129 262q-152 -262 -380 -262q-164 0 -254 120q-90 125 -91 299l13 310q0 63 -16.5 152t-16.5 111.5zM364 1491q0 39 45 57q16 8 41 8q47 0 95 -110q29 -63 73.5 -113.5t44.5 -75.5q0 -43 -55 -43t-149 89q-92 90 -93 176q-2 6 -2 12z" />
<glyph unicode="&#xfa;" horiz-adv-x="1196" d="M127 972.5q0 22.5 25.5 47t62.5 24.5q94 0 94 -167l-16 -451q0 -141 60.5 -227t165 -86t202.5 116q96 119 137 267l-6 444q0 104 78 104q94 0 94 -140t-41 -408q0 -150 21.5 -249.5t54.5 -111.5q12 -6 29.5 -8t24.5 -6t7 -17q0 -55 -33.5 -89.5t-85.5 -34.5 q-129 0 -129 262q-152 -262 -380 -262q-164 0 -254 120q-90 125 -91 299l13 310q0 63 -16.5 152t-16.5 111.5zM489 1257q0 27 21.5 50.5t58.5 66.5q16 25 39 77t46.5 78.5t58.5 26.5t54 -22.5t19 -54.5q0 -88 -94 -177.5t-148.5 -89.5t-54.5 45z" />
<glyph unicode="&#xfb;" horiz-adv-x="1196" d="M127 972.5q0 22.5 25.5 47t62.5 24.5q94 0 94 -167l-16 -451q0 -141 60.5 -227t165 -86t202.5 116q96 119 137 267l-6 444q0 104 78 104q94 0 94 -140t-41 -408q0 -150 21.5 -249.5t54.5 -111.5q12 -6 29.5 -8t24.5 -6t7 -17q0 -55 -33.5 -89.5t-85.5 -34.5 q-129 0 -129 262q-152 -262 -380 -262q-164 0 -254 120q-90 125 -91 299l13 310q0 63 -16.5 152t-16.5 111.5zM283 1262q0 33 17 50t44 40q76 63 115 121q37 47 59 65q25 18 61.5 18t60.5 -17t63.5 -67.5t60 -71t49.5 -44.5q49 -39 57 -60q8 -12 8.5 -26.5t-6.5 -30.5 q-14 -35 -57 -35h-14q-10 0 -33 18.5t-46.5 50.5t-27.5 34q-82 98 -113.5 98t-113.5 -98q-6 -4 -42 -53.5t-69.5 -49.5t-54.5 17q-18 18 -18 41z" />
<glyph unicode="&#xfc;" horiz-adv-x="1196" d="M127 972.5q0 22.5 25.5 47t62.5 24.5q94 0 94 -167l-16 -451q0 -141 60.5 -227t165 -86t202.5 116q96 119 137 267l-6 444q0 104 78 104q94 0 94 -140t-41 -408q0 -150 21.5 -249.5t54.5 -111.5q12 -6 29.5 -8t24.5 -6t7 -17q0 -55 -33.5 -89.5t-85.5 -34.5 q-129 0 -129 262q-152 -262 -380 -262q-164 0 -254 120q-90 125 -91 299l13 310q0 63 -16.5 152t-16.5 111.5zM340 1366q0 49 29.5 84t72.5 35q84 0 84 -99q0 -45 -29.5 -84.5t-70.5 -39.5q-86 0 -86 104zM668 1366q0 49 29.5 84t72.5 35q84 0 84 -99q0 -45 -29.5 -84.5 t-70.5 -39.5q-86 0 -86 104z" />
<glyph unicode="&#xfd;" horiz-adv-x="1163" d="M127 972.5q0 22.5 25.5 47t62.5 24.5q94 0 94 -167l-16 -451q0 -141 60.5 -227t165 -86t202.5 116q96 119 137 267l-6 444q0 104 78 104q94 0 94 -153q0 -121 -43 -395q25 -250 25 -373q0 -268 -132.5 -431t-367.5 -163q-123 0 -237.5 52t-114.5 104.5t47 52.5 q20 0 112.5 -38t192.5 -38q170 0 271.5 122t101.5 318q0 72 -7 140q-152 -262 -380 -262q-164 0 -254 120q-90 125 -91 299l13 310q0 63 -16.5 152t-16.5 111.5zM502 1257q0 27 22.5 50.5t57.5 66.5q16 25 38.5 77t46 78.5t58.5 26.5t54.5 -22.5t19.5 -54.5 q0 -88 -94.5 -177.5t-148.5 -89.5t-54 45z" />
<glyph unicode="&#xfe;" horiz-adv-x="1163" d="M111 -321.5q0 79.5 6 151.5l24 244q25 236 27 276v39l2 78v33q0 158 -19.5 550t-19.5 421.5t21.5 58.5t45 29t44.5 -11q49 -23 49 -80v-14v-674q72 133 156.5 198.5t216 65.5t225.5 -86q178 -158 178 -423q0 -223 -135 -389t-346 -166q-154 0 -291 100q-4 -156 -4 -259.5 t-2 -152.5q-4 -84 -19 -106q-18 -33 -62 -33t-70.5 35t-26.5 114.5zM295 231q121 -119 291 -118q131 0 230 119.5t99 283.5t-70.5 279.5t-195.5 115.5q-215 0 -354 -354v-326z" />
<glyph unicode="&#xff;" horiz-adv-x="1163" d="M127 972.5q0 22.5 25.5 47t62.5 24.5q94 0 94 -167l-16 -451q0 -141 60.5 -227t165 -86t202.5 116q96 119 137 267l-6 444q0 104 78 104q94 0 94 -153q0 -121 -43 -395q25 -250 25 -373q0 -268 -132.5 -431t-367.5 -163q-123 0 -237.5 52t-114.5 104.5t47 52.5 q20 0 112.5 -38t192.5 -38q170 0 271.5 122t101.5 318q0 72 -7 140q-152 -262 -380 -262q-164 0 -254 120q-90 125 -91 299l13 310q0 63 -16.5 152t-16.5 111.5zM344 1366q0 49 30 84t73 35q84 0 84 -99q0 -45 -30 -84.5t-71 -39.5q-86 0 -86 104zM672 1366q0 49 29.5 84 t72.5 35q84 0 84 -99q0 -45 -29.5 -84.5t-70.5 -39.5q-86 0 -86 104z" />
<glyph unicode="&#x131;" horiz-adv-x="458" d="M152 82l10 430q-4 143 -10 430q0 102 77.5 102t77.5 -102l-10 -430l10 -430q0 -102 -77.5 -102t-77.5 102z" />
<glyph unicode="&#x152;" horiz-adv-x="2027" d="M113 770q0 135 28.5 228.5t89.5 93.5q29 0 47.5 -19.5t18.5 -49.5t-13.5 -97.5t-13.5 -155.5q0 -301 158 -476t369 -175t351 196.5t140 451.5t-123 452.5t-265 197.5t-238.5 -102.5t-133 -241.5t-36.5 -272t11 -198.5t11 -86.5q0 -51 -47 -51q-41 0 -76 103.5t-35 240.5 t31 271t93.5 246t171 176.5t251.5 64.5l227 -21l396 -10l307 10q102 0 102 -77.5t-102 -77.5l-307 10q-231 0 -299 -8q184 -190 219 -506q246 10 283.5 10t65.5 -21.5t28 -58.5q0 -76 -103 -76q-4 0 -266 9q-2 -182 -63.5 -341t-165.5 -268q109 -6 276 -6l332 10 q102 0 102 -77.5t-102 -77.5l-332 10l-358 -10l-344 -17q-287 0 -486.5 223.5t-199.5 573.5z" />
<glyph unicode="&#x153;" horiz-adv-x="1859" d="M94 510q0 227 137.5 386t341.5 159q135 0 245 -68.5t171 -189.5q145 258 416 258q147 0 250.5 -92.5t103.5 -241t-127 -224t-315 -75.5q-106 0 -260 31q12 -145 107.5 -248t222 -103t208.5 62.5t108 62.5t41 -15t15 -38q0 -57 -117.5 -131t-255.5 -74q-274 0 -405 248 q-63 -117 -169.5 -182.5t-236.5 -65.5q-211 0 -346 157t-135 384zM240 510q0 -170 94 -289t236.5 -119t241.5 120t99 290t-95 290t-235.5 120t-242.5 -121q-98 -121 -98 -291zM1059 584q111 -33 249 -33t222 47t84 129t-56.5 138.5t-152.5 56.5q-135 0 -226 -101.5 t-120 -236.5z" />
<glyph unicode="&#x178;" horiz-adv-x="1193" d="M43 1460q0 96 74 96q20 0 40.5 -19t30 -47t25.5 -92.5t41 -146.5q70 -233 192 -387q68 -84 129 -84q31 0 46 8q90 571 235 715q61 61 134 61.5t111 -45.5t38 -124q0 -170 -118 -363.5t-257 -331.5q-16 -102 -16 -276t10 -328.5t10 -185.5t-23.5 -57.5t-60.5 -26.5 q-78 0 -90 190q-2 49 -2 174t24 445q-25 -4 -53 -4q-104 0 -189 78.5t-164 246.5t-123 306.5t-44 197.5zM770 889q78 90 153.5 243.5t75.5 241.5q0 43 -22 43q-43 0 -121 -213t-86 -315zM333 1835q0 49 30 84t73 35q84 0 84 -99q0 -45 -30 -84.5t-71 -39.5q-86 0 -86 104z M661 1835q0 49 29.5 84t72.5 35q84 0 84 -99q0 -45 -29.5 -84.5t-70.5 -39.5q-86 0 -86 104z" />
<glyph unicode="&#x2c6;" horiz-adv-x="841" d="M123 1262q0 33 17.5 50t43.5 40q76 63 115 121q37 47 59 65q25 18 62 18t60.5 -17t63.5 -67.5t60.5 -71t48.5 -44.5q49 -39 58 -60q8 -12 8 -26.5t-6 -30.5q-14 -35 -58 -35h-14q-10 0 -32.5 18.5t-46 50.5t-27.5 34q-84 98 -115 98t-113 -98q-6 -4 -42 -53.5 t-69.5 -49.5t-54.5 17q-18 18 -18 41z" />
<glyph unicode="&#x2da;" horiz-adv-x="372" d="M0 1371q0 83 53 139.5t133 56.5t133.5 -56.5t53.5 -138.5t-51.5 -137t-134.5 -55t-136 53q-51 55 -51 138zM96 1373q0 -38 27 -67.5t63.5 -29.5t63 29.5t26.5 67.5t-27.5 67.5t-62 29.5t-62.5 -29.5t-28 -67.5z" />
<glyph unicode="&#x2dc;" horiz-adv-x="1017" d="M143 1296.5q0 59.5 65.5 113.5t151.5 54t190.5 -57t149.5 -57t79 52t52.5 52t30.5 -17.5t12 -39.5q0 -70 -52 -122t-122.5 -52t-168 56t-132 56t-61.5 -18.5t-34 -27.5t-36 -48q-27 -31 -47 -31t-35 7q-43 20 -43 79.5z" />
<glyph unicode="&#x2000;" horiz-adv-x="1009" />
<glyph unicode="&#x2001;" horiz-adv-x="2019" />
<glyph unicode="&#x2002;" horiz-adv-x="1009" />
<glyph unicode="&#x2003;" horiz-adv-x="2019" />
<glyph unicode="&#x2004;" horiz-adv-x="671" />
<glyph unicode="&#x2005;" horiz-adv-x="503" />
<glyph unicode="&#x2006;" horiz-adv-x="335" />
<glyph unicode="&#x2007;" horiz-adv-x="335" />
<glyph unicode="&#x2008;" horiz-adv-x="251" />
<glyph unicode="&#x2009;" horiz-adv-x="403" />
<glyph unicode="&#x200a;" horiz-adv-x="110" />
<glyph unicode="&#x2010;" horiz-adv-x="876" d="M135 534.5q0 18.5 15.5 43t58.5 24.5h10l219 -6l219 6h11q43 0 58 -24.5t15 -43t-15 -43t-58 -24.5h-11l-219 6l-219 -6h-10q-43 0 -58.5 24.5t-15.5 43z" />
<glyph unicode="&#x2011;" horiz-adv-x="876" d="M135 534.5q0 18.5 15.5 43t58.5 24.5h10l219 -6l219 6h11q43 0 58 -24.5t15 -43t-15 -43t-58 -24.5h-11l-219 6l-219 -6h-10q-43 0 -58.5 24.5t-15.5 43z" />
<glyph unicode="&#x2012;" horiz-adv-x="876" d="M135 534.5q0 18.5 15.5 43t58.5 24.5h10l219 -6l219 6h11q43 0 58 -24.5t15 -43t-15 -43t-58 -24.5h-11l-219 6l-219 -6h-10q-43 0 -58.5 24.5t-15.5 43z" />
<glyph unicode="&#x2013;" horiz-adv-x="1163" d="M135 534.5q0 18.5 15.5 43t58.5 24.5h10l363 -6l362 6h10q43 0 58.5 -24.5t15.5 -43t-15.5 -43t-58.5 -24.5h-10l-362 6l-363 -6h-10q-43 0 -58.5 24.5t-15.5 43z" />
<glyph unicode="&#x2014;" horiz-adv-x="1736" d="M135 534.5q0 18.5 15.5 43t58.5 24.5l659 -6l650 6h10q43 0 58.5 -24.5t15.5 -43t-15.5 -43t-58.5 -24.5h-10l-650 6l-649 -6h-10q-43 0 -58.5 24.5t-15.5 43z" />
<glyph unicode="&#x2018;" horiz-adv-x="446" d="M102 1077q0 139 72 277q74 137 143 137q16 0 28.5 -11.5t12.5 -26.5t-37.5 -78.5t-37.5 -127.5l12 -149q0 -47 -28.5 -85t-72.5 -38t-68 30.5t-24 71.5z" />
<glyph unicode="&#x2019;" horiz-adv-x="448" d="M98 1010.5q0 13.5 38 78t38 130.5l-12 149q0 47 28.5 85t72.5 38t67.5 -29.5t23.5 -72.5q0 -139 -72.5 -276.5t-142.5 -137.5q-16 0 -28.5 11t-12.5 24.5z" />
<glyph unicode="&#x201a;" horiz-adv-x="430" d="M117 68.5q0 21.5 1 44t31.5 59.5t59.5 37t49 -8q53 -27 53 -82q0 -8 -2 -19q0 -123 -46 -249.5t-95 -126.5q-41 0 -41 43l6 163q0 25 -8 71t-8 67.5z" />
<glyph unicode="&#x201c;" horiz-adv-x="778" d="M102 1077q0 139 72 277q74 137 143 137q16 0 28.5 -11.5t12.5 -26.5t-37.5 -78.5t-37.5 -127.5l12 -149q0 -47 -28.5 -85t-72.5 -38t-68 30.5t-24 71.5zM434 1077q0 139 72 277q74 137 143 137q16 0 28.5 -11.5t12.5 -26.5t-38 -78.5t-38 -127.5l13 -149q0 -47 -29 -85 t-73 -38t-67.5 30.5t-23.5 71.5z" />
<glyph unicode="&#x201d;" horiz-adv-x="780" d="M98 1010.5q0 13.5 38 78t38 130.5l-12 149q0 47 28.5 85t72.5 38t67.5 -29.5t23.5 -72.5q0 -139 -72.5 -276.5t-142.5 -137.5q-16 0 -28.5 11t-12.5 24.5zM430 1010.5q0 13.5 38 78t38 130.5l-12 149q0 47 28.5 85t72.5 38t67.5 -29.5t23.5 -72.5q0 -139 -72.5 -276.5 t-142.5 -137.5q-16 0 -28.5 11t-12.5 24.5z" />
<glyph unicode="&#x201e;" horiz-adv-x="798" d="M117 68.5q0 21.5 1 44t31.5 59.5t59.5 37t49 -8q53 -27 53 -82q0 -8 -2 -19q0 -123 -46 -249.5t-95 -126.5q-41 0 -41 43l6 163q0 25 -8 71t-8 67.5zM485 68.5q0 21.5 1 44t32 59.5t59.5 37t49.5 -8q53 -27 53 -82q0 -8 -2 -19q0 -123 -46 -249.5t-95 -126.5 q-41 0 -41 43l6 163q0 25 -8.5 71t-8.5 67.5z" />
<glyph unicode="&#x2022;" horiz-adv-x="591" d="M104 791.5q0 97.5 59.5 175t146.5 77.5t133 -61t46 -159.5t-59 -180.5q-59 -78 -144 -78t-133.5 64.5t-48.5 162z" />
<glyph unicode="&#x2026;" horiz-adv-x="1193" d="M115 92q0 49 29.5 88t72.5 39t66.5 -30.5t23.5 -81t-30.5 -89t-71.5 -38.5t-65.5 31.5t-24.5 80.5zM500 92q0 49 29.5 88t72.5 39t66.5 -30.5t23.5 -81t-30.5 -89t-71.5 -38.5t-65.5 31.5t-24.5 80.5zM885 92q0 49 29.5 88t72.5 39t66.5 -30.5t23.5 -81t-30.5 -89 t-71.5 -38.5t-65.5 31.5t-24.5 80.5z" />
<glyph unicode="&#x202f;" horiz-adv-x="403" />
<glyph unicode="&#x2039;" horiz-adv-x="610" d="M90 709.5q0 33.5 16.5 56t69.5 70.5l76 71q14 12 50 52t60.5 64t47 24t32.5 -7q41 -16 41 -53t-17 -54.5t-66.5 -54t-59.5 -47.5q-98 -90 -98 -116.5t98 -116.5q10 -10 59.5 -47t66.5 -54.5t17 -45t-18 -48.5q-20 -20 -42 -20t-44 12l-33 25q-66 74 -92.5 100.5 t-118.5 110.5q-45 45 -45 78.5z" />
<glyph unicode="&#x203a;" horiz-adv-x="608" d="M127 443.5q0 35.5 16.5 53t65.5 54.5t61 47q98 90 98.5 116.5t-98.5 116.5q-12 10 -61 47t-65.5 54.5t-16.5 45.5t19.5 48.5t41 20.5t41.5 -15q20 -8 27.5 -17t59 -63.5t98.5 -97.5t59 -55q47 -43 47 -78t-16.5 -57.5t-69.5 -71.5l-76 -70q-14 -14 -50 -53t-60.5 -61.5 t-47 -22.5t-32.5 4q-41 19 -41 54.5z" />
<glyph unicode="&#x205f;" horiz-adv-x="503" />
<glyph unicode="&#x20ac;" horiz-adv-x="1316" d="M102 574.5q0 19.5 9 35.5q23 41 77 41l363 -6l362 6h11q43 0 58 -24.5t15 -43t-15 -43t-58 -24.5h-11l-362 6q-96 0 -123 -2q37 -195 135.5 -307.5t235.5 -112.5t220 68t111.5 68t45 -17.5t16.5 -44.5q0 -63 -113.5 -134t-267.5 -71q-205 0 -344 152q-139 156 -182 397 h-78q-55 0 -80 18.5t-25 38zM104 837.5q0 18.5 15.5 43t58.5 24.5h10l95 -2q41 248 178 406q141 156 350 155q145 0 248.5 -64.5t103.5 -135.5q0 -41 -35 -56q-12 -6 -31.5 -6t-38 12.5t-40 33t-36.5 31.5t-42 28q-51 29 -129 28q-152 0 -253 -117.5t-134 -318.5h127l362 6 h11q43 0 58 -24.5t15 -43t-15 -43t-58 -24.5h-11l-362 6l-363 -6h-10q-43 0 -58.5 24.5t-15.5 43z" />
<glyph unicode="&#x2122;" horiz-adv-x="1771" d="M137 1483.5q0 60.5 84 60.5l211 -6l199 8q41 0 64.5 -17.5t23.5 -43.5q0 -61 -88 -62l-137 4q-6 -141 -7 -307l7 -356q0 -78 -61.5 -78t-61.5 78l6 356q0 236 -6 310l-150 -7q-84 0 -84 60.5zM836 764l4 352v170l-2 182q0 33 18 55.5t49 22.5q70 0 108 -77.5t208 -460.5 q43 82 117.5 267t105.5 227t65.5 43t54 -21.5t19.5 -69.5t-2 -168v-170q2 -119 4 -354q0 -76 -59 -76q-63 0 -64 78l6 352q0 174 -2 213l-202 -471q-14 -35 -45 -35t-50 39q0 6 -90 202t-125 265q-2 -39 -2 -213l6 -352q0 -78 -63 -78q-59 0 -59 78z" />
<glyph unicode="&#xe000;" horiz-adv-x="1055" d="M0 1055h1055v-1055h-1055v1055z" />
<glyph unicode="&#xfb01;" horiz-adv-x="1136" d="M41 963q0 31 22.5 48t55.5 17l102 -4v174q0 180 70.5 269t171 89t167 -36.5t66.5 -81.5q0 -68 -57 -68q-29 0 -74 24.5t-80 24.5q-127 0 -127 -239v-156h45l502 12q80 0 80 -98l-10 -426l12 -428v-12q0 -68 -55 -86q-16 -6 -41 -6t-44.5 27.5t-19.5 47.5v29l13 428 q0 18 -4.5 148.5t-6.5 240.5q-137 8 -254.5 8t-216.5 -4v-137q0 -281 6.5 -475.5t6.5 -225t-21.5 -59t-58.5 -28.5t-58.5 27.5t-21.5 76.5t6 241.5t6 442.5v137l-104 -4q-78 1 -78 62zM813 1372q0 49 29.5 84t72.5 35q84 0 84 -98q0 -47 -26.5 -86t-69.5 -39q-90 0 -90 104z " />
<glyph unicode="&#xfb02;" d="M41 963q0 31 22.5 48t55.5 17l102 -2v172q0 190 121 275q125 84 301 83.5t299 -59.5q57 -33 57 -119l-10 -610q0 -281 6 -475.5t6 -208.5q0 -104 -79.5 -104t-79.5 104q0 49 6 241.5t6 442.5l-10 621q-100 31 -195 30q-291 0 -291 -239v-156l199 4q33 0 55.5 -17.5 t22.5 -47.5q0 -61 -71.5 -60.5t-205.5 2.5v-137q0 -281 6.5 -475.5t6.5 -225t-21.5 -59t-58.5 -28.5t-58.5 27.5t-21.5 76.5t6 241.5t6 442.5v135l-104 -2q-78 1 -78 62z" />
<glyph unicode="&#xfb03;" horiz-adv-x="1769" d="M41 961q0 72 98 71q57 0 80 -2v168q0 180 70.5 269t171 89t167 -36.5t66.5 -81.5q0 -68 -57 -68q-27 0 -72 24.5t-82 24.5q-127 0 -127 -239v-154q170 -4 292 -4t208 2v174q0 180 70.5 269t171 89t167 -36.5t66.5 -81.5q0 -68 -57 -68q-29 0 -74 24.5t-80 24.5 q-127 0 -127 -239v-156h43l502 12q80 0 80 -98l-10 -426l12 -428v-12q0 -68 -55 -86q-16 -6 -41 -6t-44.5 27.5t-19.5 47.5v29l13 428q0 18 -4.5 148.5t-6.5 240.5q-135 8 -253.5 8t-217.5 -4v-137q0 -281 6.5 -475.5t6.5 -226t-23 -59t-57 -27.5q-76 0 -76 104l10 684v133 l-182 2q-31 0 -320 -6v-129q0 -281 6.5 -475.5t6.5 -208.5q0 -104 -79 -104t-79 104q0 49 5 180t5 504v125h-82q-98 0 -98 68zM1446 1372q0 49 29.5 84t72.5 35q84 0 84 -98q0 -47 -26.5 -86t-69.5 -39q-90 0 -90 104z" />
<glyph unicode="&#xfb04;" horiz-adv-x="1798" d="M1491 82l10 686l-10 686q0 102 77.5 102t77.5 -102l-10 -686l10 -686q0 -102 -77.5 -102t-77.5 102zM711 963q0 31 22.5 48t55.5 17l102 -4v174q0 180 70.5 269t171 89t167 -36.5t66.5 -81.5q0 -68 -57 -68q-14 0 -68.5 24.5t-85.5 24.5q-127 0 -127 -239v-156l199 4 q33 0 55.5 -17.5t22.5 -47.5q0 -61 -78 -62l-199 4l7 -735q0 -203 -75 -312.5t-154 -109.5t-79 39q0 16 15.5 31.5t42 40t45.5 51.5q59 84 65 239.5t6 364.5t-8 391l-104 -4q-78 1 -78 62zM41 963q0 31 22.5 48t55.5 17l102 -4v174q0 180 70.5 269t171 89t167 -36.5 t66.5 -81.5q0 -68 -57 -68q-14 0 -68.5 24.5t-85.5 24.5q-127 0 -127 -239v-156l199 4q33 0 55.5 -17.5t22.5 -47.5q0 -61 -78 -62l-199 4l7 -735q0 -203 -75 -312.5t-154 -109.5t-79 39q0 16 15.5 31.5t42 40t45.5 51.5q59 84 65 239.5t6 364.5t-8 391l-104 -4 q-78 1 -78 62z" />
</font>
</defs>
</svg>
